%TF.GenerationSoftware,KiCad,Pcbnew,5.1.7+dfsg1-1*%
%TF.CreationDate,2020-10-21T16:59:47-04:00*%
%TF.ProjectId,74HC595Breakout,37344843-3539-4354-9272-65616b6f7574,rev?*%
%TF.SameCoordinates,Original*%
%TF.FileFunction,Soldermask,Bot*%
%TF.FilePolarity,Negative*%
%FSLAX46Y46*%
G04 Gerber Fmt 4.6, Leading zero omitted, Abs format (unit mm)*
G04 Created by KiCad (PCBNEW 5.1.7+dfsg1-1) date 2020-10-21 16:59:47*
%MOMM*%
%LPD*%
G01*
G04 APERTURE LIST*
%ADD10O,1.700000X1.700000*%
%ADD11C,3.600000*%
%ADD12C,1.700000*%
%ADD13O,1.800000X1.800000*%
G04 APERTURE END LIST*
%TO.C,U2*%
G36*
G01*
X134200000Y-99784000D02*
X134200000Y-101384000D01*
G75*
G02*
X134150000Y-101434000I-50000J0D01*
G01*
X132550000Y-101434000D01*
G75*
G02*
X132500000Y-101384000I0J50000D01*
G01*
X132500000Y-99784000D01*
G75*
G02*
X132550000Y-99734000I50000J0D01*
G01*
X134150000Y-99734000D01*
G75*
G02*
X134200000Y-99784000I0J-50000D01*
G01*
G37*
D10*
X125730000Y-80264000D03*
X133350000Y-98044000D03*
X125730000Y-82804000D03*
X133350000Y-95504000D03*
X125730000Y-85344000D03*
X133350000Y-92964000D03*
X125730000Y-87884000D03*
X133350000Y-90424000D03*
X125730000Y-90424000D03*
X133350000Y-87884000D03*
X125730000Y-92964000D03*
X133350000Y-85344000D03*
X125730000Y-95504000D03*
X133350000Y-82804000D03*
X125730000Y-98044000D03*
X133350000Y-80264000D03*
X125730000Y-100584000D03*
%TD*%
D11*
%TO.C,REF\u002A\u002A*%
X147320000Y-77470000D03*
%TD*%
%TO.C,REF\u002A\u002A*%
X121412000Y-77470000D03*
%TD*%
%TO.C,REF\u002A\u002A*%
X121412000Y-106680000D03*
%TD*%
%TO.C,REF\u002A\u002A*%
X147320000Y-106680000D03*
%TD*%
D12*
%TO.C,C1*%
X141986000Y-79502000D03*
X136986000Y-79502000D03*
%TD*%
%TO.C,JP1*%
G36*
G01*
X140450000Y-100656000D02*
X138950000Y-100656000D01*
G75*
G02*
X138900000Y-100606000I0J50000D01*
G01*
X138900000Y-99606000D01*
G75*
G02*
X138950000Y-99556000I50000J0D01*
G01*
X140450000Y-99556000D01*
G75*
G02*
X140500000Y-99606000I0J-50000D01*
G01*
X140500000Y-100606000D01*
G75*
G02*
X140450000Y-100656000I-50000J0D01*
G01*
G37*
G36*
G01*
X140450000Y-99356000D02*
X138950000Y-99356000D01*
G75*
G02*
X138900000Y-99306000I0J50000D01*
G01*
X138900000Y-98306000D01*
G75*
G02*
X138950000Y-98256000I50000J0D01*
G01*
X140450000Y-98256000D01*
G75*
G02*
X140500000Y-98306000I0J-50000D01*
G01*
X140500000Y-99306000D01*
G75*
G02*
X140450000Y-99356000I-50000J0D01*
G01*
G37*
%TD*%
%TO.C,JP2*%
G36*
G01*
X140250000Y-89100000D02*
X138750000Y-89100000D01*
G75*
G02*
X138700000Y-89050000I0J50000D01*
G01*
X138700000Y-88050000D01*
G75*
G02*
X138750000Y-88000000I50000J0D01*
G01*
X140250000Y-88000000D01*
G75*
G02*
X140300000Y-88050000I0J-50000D01*
G01*
X140300000Y-89050000D01*
G75*
G02*
X140250000Y-89100000I-50000J0D01*
G01*
G37*
G36*
G01*
X140250000Y-90400000D02*
X138750000Y-90400000D01*
G75*
G02*
X138700000Y-90350000I0J50000D01*
G01*
X138700000Y-89350000D01*
G75*
G02*
X138750000Y-89300000I50000J0D01*
G01*
X140250000Y-89300000D01*
G75*
G02*
X140300000Y-89350000I0J-50000D01*
G01*
X140300000Y-90350000D01*
G75*
G02*
X140250000Y-90400000I-50000J0D01*
G01*
G37*
%TD*%
%TO.C,U1*%
G36*
G01*
X134825001Y-83625001D02*
X134825001Y-82025001D01*
G75*
G02*
X134875001Y-81975001I50000J0D01*
G01*
X136475001Y-81975001D01*
G75*
G02*
X136525001Y-82025001I0J-50000D01*
G01*
X136525001Y-83625001D01*
G75*
G02*
X136475001Y-83675001I-50000J0D01*
G01*
X134875001Y-83675001D01*
G75*
G02*
X134825001Y-83625001I0J50000D01*
G01*
G37*
D10*
X143295001Y-100605001D03*
X135675001Y-85365001D03*
X143295001Y-98065001D03*
X135675001Y-87905001D03*
X143295001Y-95525001D03*
X135675001Y-90445001D03*
X143295001Y-92985001D03*
X135675001Y-92985001D03*
X143295001Y-90445001D03*
X135675001Y-95525001D03*
X143295001Y-87905001D03*
X135675001Y-98065001D03*
X143295001Y-85365001D03*
X135675001Y-100605001D03*
X143295001Y-82825001D03*
%TD*%
D13*
%TO.C,J1*%
X146304000Y-98044000D03*
X146304000Y-95504000D03*
X146304000Y-92964000D03*
X146304000Y-90424000D03*
X146304000Y-87884000D03*
X146304000Y-85344000D03*
G36*
G01*
X145404000Y-83654000D02*
X145404000Y-81954000D01*
G75*
G02*
X145454000Y-81904000I50000J0D01*
G01*
X147154000Y-81904000D01*
G75*
G02*
X147204000Y-81954000I0J-50000D01*
G01*
X147204000Y-83654000D01*
G75*
G02*
X147154000Y-83704000I-50000J0D01*
G01*
X145454000Y-83704000D01*
G75*
G02*
X145404000Y-83654000I0J50000D01*
G01*
G37*
%TD*%
%TO.C,J2*%
G36*
G01*
X121782000Y-83654000D02*
X121782000Y-81954000D01*
G75*
G02*
X121832000Y-81904000I50000J0D01*
G01*
X123532000Y-81904000D01*
G75*
G02*
X123582000Y-81954000I0J-50000D01*
G01*
X123582000Y-83654000D01*
G75*
G02*
X123532000Y-83704000I-50000J0D01*
G01*
X121832000Y-83704000D01*
G75*
G02*
X121782000Y-83654000I0J50000D01*
G01*
G37*
X122682000Y-85344000D03*
X122682000Y-87884000D03*
X122682000Y-90424000D03*
X122682000Y-92964000D03*
X122682000Y-95504000D03*
X122682000Y-98044000D03*
%TD*%
%TO.C,J3*%
G36*
G01*
X142406000Y-104510000D02*
X144106000Y-104510000D01*
G75*
G02*
X144156000Y-104560000I0J-50000D01*
G01*
X144156000Y-106260000D01*
G75*
G02*
X144106000Y-106310000I-50000J0D01*
G01*
X142406000Y-106310000D01*
G75*
G02*
X142356000Y-106260000I0J50000D01*
G01*
X142356000Y-104560000D01*
G75*
G02*
X142406000Y-104510000I50000J0D01*
G01*
G37*
X143256000Y-107950000D03*
X140716000Y-105410000D03*
X140716000Y-107950000D03*
X138176000Y-105410000D03*
X138176000Y-107950000D03*
X135636000Y-105410000D03*
X135636000Y-107950000D03*
X133096000Y-105410000D03*
X133096000Y-107950000D03*
X130556000Y-105410000D03*
X130556000Y-107950000D03*
X128016000Y-105410000D03*
X128016000Y-107950000D03*
X125476000Y-105410000D03*
X125476000Y-107950000D03*
%TD*%
%TO.C,J4*%
G36*
G01*
X129960000Y-75935000D02*
X131660000Y-75935000D01*
G75*
G02*
X131710000Y-75985000I0J-50000D01*
G01*
X131710000Y-77685000D01*
G75*
G02*
X131660000Y-77735000I-50000J0D01*
G01*
X129960000Y-77735000D01*
G75*
G02*
X129910000Y-77685000I0J50000D01*
G01*
X129910000Y-75985000D01*
G75*
G02*
X129960000Y-75935000I50000J0D01*
G01*
G37*
X128270000Y-76835000D03*
%TD*%
%TO.C,JP3*%
G36*
G01*
X130163000Y-87306000D02*
X128663000Y-87306000D01*
G75*
G02*
X128613000Y-87256000I0J50000D01*
G01*
X128613000Y-86256000D01*
G75*
G02*
X128663000Y-86206000I50000J0D01*
G01*
X130163000Y-86206000D01*
G75*
G02*
X130213000Y-86256000I0J-50000D01*
G01*
X130213000Y-87256000D01*
G75*
G02*
X130163000Y-87306000I-50000J0D01*
G01*
G37*
G36*
G01*
X130163000Y-86006000D02*
X128663000Y-86006000D01*
G75*
G02*
X128613000Y-85956000I0J50000D01*
G01*
X128613000Y-84956000D01*
G75*
G02*
X128663000Y-84906000I50000J0D01*
G01*
X130163000Y-84906000D01*
G75*
G02*
X130213000Y-84956000I0J-50000D01*
G01*
X130213000Y-85956000D01*
G75*
G02*
X130163000Y-86006000I-50000J0D01*
G01*
G37*
%TD*%
M02*
