%TF.GenerationSoftware,KiCad,Pcbnew,5.1.7+dfsg1-1*%
%TF.CreationDate,2020-10-05T18:44:40-04:00*%
%TF.ProjectId,74HC595Breakout,37344843-3539-4354-9272-65616b6f7574,rev?*%
%TF.SameCoordinates,Original*%
%TF.FileFunction,Copper,L2,Bot*%
%TF.FilePolarity,Positive*%
%FSLAX46Y46*%
G04 Gerber Fmt 4.6, Leading zero omitted, Abs format (unit mm)*
G04 Created by KiCad (PCBNEW 5.1.7+dfsg1-1) date 2020-10-05 18:44:40*
%MOMM*%
%LPD*%
G01*
G04 APERTURE LIST*
%TA.AperFunction,EtchedComponent*%
%ADD10C,0.100000*%
%TD*%
%TA.AperFunction,ComponentPad*%
%ADD11R,1.600000X1.600000*%
%TD*%
%TA.AperFunction,ComponentPad*%
%ADD12O,1.600000X1.600000*%
%TD*%
%TA.AperFunction,ComponentPad*%
%ADD13C,3.500000*%
%TD*%
%TA.AperFunction,ComponentPad*%
%ADD14C,1.600000*%
%TD*%
%TA.AperFunction,SMDPad,CuDef*%
%ADD15R,1.500000X1.000000*%
%TD*%
%TA.AperFunction,ComponentPad*%
%ADD16O,1.700000X1.700000*%
%TD*%
%TA.AperFunction,ComponentPad*%
%ADD17R,1.700000X1.700000*%
%TD*%
%TA.AperFunction,Conductor*%
%ADD18C,0.250000*%
%TD*%
%TA.AperFunction,Conductor*%
%ADD19C,0.500000*%
%TD*%
%TA.AperFunction,Conductor*%
%ADD20C,1.000000*%
%TD*%
%TA.AperFunction,Conductor*%
%ADD21C,0.254000*%
%TD*%
%TA.AperFunction,Conductor*%
%ADD22C,0.100000*%
%TD*%
G04 APERTURE END LIST*
D10*
%TO.C,JP1*%
G36*
X140000000Y-99706000D02*
G01*
X140000000Y-99206000D01*
X139400000Y-99206000D01*
X139400000Y-99706000D01*
X140000000Y-99706000D01*
G37*
%TO.C,JP2*%
G36*
X139800000Y-89450000D02*
G01*
X139800000Y-88950000D01*
X139200000Y-88950000D01*
X139200000Y-89450000D01*
X139800000Y-89450000D01*
G37*
%TO.C,JP3*%
G36*
X129713000Y-86356000D02*
G01*
X129713000Y-85856000D01*
X129113000Y-85856000D01*
X129113000Y-86356000D01*
X129713000Y-86356000D01*
G37*
%TD*%
D11*
%TO.P,U2,1*%
%TO.N,Net-(U1-Pad15)*%
X133350000Y-100584000D03*
D12*
%TO.P,U2,10*%
%TO.N,Vdrive*%
X125730000Y-80264000D03*
%TO.P,U2,2*%
%TO.N,Net-(U1-Pad1)*%
X133350000Y-98044000D03*
%TO.P,U2,11*%
%TO.N,Net-(J3-Pad8)*%
X125730000Y-82804000D03*
%TO.P,U2,3*%
%TO.N,Net-(U1-Pad2)*%
X133350000Y-95504000D03*
%TO.P,U2,12*%
%TO.N,Net-(J3-Pad7)*%
X125730000Y-85344000D03*
%TO.P,U2,4*%
%TO.N,Net-(U1-Pad3)*%
X133350000Y-92964000D03*
%TO.P,U2,13*%
%TO.N,Net-(J3-Pad6)*%
X125730000Y-87884000D03*
%TO.P,U2,5*%
%TO.N,Net-(U1-Pad4)*%
X133350000Y-90424000D03*
%TO.P,U2,14*%
%TO.N,Net-(J3-Pad5)*%
X125730000Y-90424000D03*
%TO.P,U2,6*%
%TO.N,Net-(U1-Pad5)*%
X133350000Y-87884000D03*
%TO.P,U2,15*%
%TO.N,Net-(J3-Pad4)*%
X125730000Y-92964000D03*
%TO.P,U2,7*%
%TO.N,Net-(U1-Pad6)*%
X133350000Y-85344000D03*
%TO.P,U2,16*%
%TO.N,Net-(J3-Pad3)*%
X125730000Y-95504000D03*
%TO.P,U2,8*%
%TO.N,Net-(U1-Pad7)*%
X133350000Y-82804000D03*
%TO.P,U2,17*%
%TO.N,Net-(J3-Pad2)*%
X125730000Y-98044000D03*
%TO.P,U2,9*%
%TO.N,GND*%
X133350000Y-80264000D03*
%TO.P,U2,18*%
%TO.N,Net-(J3-Pad1)*%
X125730000Y-100584000D03*
%TD*%
D13*
%TO.P,REF\u002A\u002A,1*%
%TO.N,N/C*%
X147320000Y-77470000D03*
%TD*%
%TO.P,REF\u002A\u002A,1*%
%TO.N,N/C*%
X121412000Y-77470000D03*
%TD*%
%TO.P,REF\u002A\u002A,1*%
%TO.N,N/C*%
X121412000Y-106680000D03*
%TD*%
%TO.P,REF\u002A\u002A,1*%
%TO.N,N/C*%
X147320000Y-106680000D03*
%TD*%
D14*
%TO.P,C1,1*%
%TO.N,VCC*%
X141986000Y-79502000D03*
%TO.P,C1,2*%
%TO.N,GND*%
X136986000Y-79502000D03*
%TD*%
D15*
%TO.P,JP1,1*%
%TO.N,VCC*%
X139700000Y-100106000D03*
%TO.P,JP1,2*%
%TO.N,/SRCLR*%
X139700000Y-98806000D03*
%TD*%
%TO.P,JP2,2*%
%TO.N,GND*%
X139500000Y-88550000D03*
%TO.P,JP2,1*%
%TO.N,/OE*%
X139500000Y-89850000D03*
%TD*%
D11*
%TO.P,U1,1*%
%TO.N,Net-(U1-Pad1)*%
X135675001Y-82825001D03*
D12*
%TO.P,U1,9*%
%TO.N,Net-(J2-Pad3)*%
X143295001Y-100605001D03*
%TO.P,U1,2*%
%TO.N,Net-(U1-Pad2)*%
X135675001Y-85365001D03*
%TO.P,U1,10*%
%TO.N,/SRCLR*%
X143295001Y-98065001D03*
%TO.P,U1,3*%
%TO.N,Net-(U1-Pad3)*%
X135675001Y-87905001D03*
%TO.P,U1,11*%
%TO.N,Net-(J1-Pad6)*%
X143295001Y-95525001D03*
%TO.P,U1,4*%
%TO.N,Net-(U1-Pad4)*%
X135675001Y-90445001D03*
%TO.P,U1,12*%
%TO.N,Net-(J1-Pad5)*%
X143295001Y-92985001D03*
%TO.P,U1,5*%
%TO.N,Net-(U1-Pad5)*%
X135675001Y-92985001D03*
%TO.P,U1,13*%
%TO.N,/OE*%
X143295001Y-90445001D03*
%TO.P,U1,6*%
%TO.N,Net-(U1-Pad6)*%
X135675001Y-95525001D03*
%TO.P,U1,14*%
%TO.N,Net-(J1-Pad3)*%
X143295001Y-87905001D03*
%TO.P,U1,7*%
%TO.N,Net-(U1-Pad7)*%
X135675001Y-98065001D03*
%TO.P,U1,15*%
%TO.N,Net-(U1-Pad15)*%
X143295001Y-85365001D03*
%TO.P,U1,8*%
%TO.N,GND*%
X135675001Y-100605001D03*
%TO.P,U1,16*%
%TO.N,VCC*%
X143295001Y-82825001D03*
%TD*%
D16*
%TO.P,J1,7*%
%TO.N,/SRCLR*%
X146304000Y-98044000D03*
%TO.P,J1,6*%
%TO.N,Net-(J1-Pad6)*%
X146304000Y-95504000D03*
%TO.P,J1,5*%
%TO.N,Net-(J1-Pad5)*%
X146304000Y-92964000D03*
%TO.P,J1,4*%
%TO.N,/OE*%
X146304000Y-90424000D03*
%TO.P,J1,3*%
%TO.N,Net-(J1-Pad3)*%
X146304000Y-87884000D03*
%TO.P,J1,2*%
%TO.N,VCC*%
X146304000Y-85344000D03*
D17*
%TO.P,J1,1*%
%TO.N,GND*%
X146304000Y-82804000D03*
%TD*%
%TO.P,J2,1*%
%TO.N,GND*%
X122682000Y-82804000D03*
D16*
%TO.P,J2,2*%
%TO.N,VCC*%
X122682000Y-85344000D03*
%TO.P,J2,3*%
%TO.N,Net-(J2-Pad3)*%
X122682000Y-87884000D03*
%TO.P,J2,4*%
%TO.N,/OE*%
X122682000Y-90424000D03*
%TO.P,J2,5*%
%TO.N,Net-(J1-Pad5)*%
X122682000Y-92964000D03*
%TO.P,J2,6*%
%TO.N,Net-(J1-Pad6)*%
X122682000Y-95504000D03*
%TO.P,J2,7*%
%TO.N,/SRCLR*%
X122682000Y-98044000D03*
%TD*%
D17*
%TO.P,J3,1*%
%TO.N,Net-(J3-Pad1)*%
X143256000Y-105410000D03*
D16*
%TO.P,J3,9*%
%TO.N,Vdrive*%
X143256000Y-107950000D03*
%TO.P,J3,2*%
%TO.N,Net-(J3-Pad2)*%
X140716000Y-105410000D03*
%TO.P,J3,10*%
%TO.N,Vdrive*%
X140716000Y-107950000D03*
%TO.P,J3,3*%
%TO.N,Net-(J3-Pad3)*%
X138176000Y-105410000D03*
%TO.P,J3,11*%
%TO.N,Vdrive*%
X138176000Y-107950000D03*
%TO.P,J3,4*%
%TO.N,Net-(J3-Pad4)*%
X135636000Y-105410000D03*
%TO.P,J3,12*%
%TO.N,Vdrive*%
X135636000Y-107950000D03*
%TO.P,J3,5*%
%TO.N,Net-(J3-Pad5)*%
X133096000Y-105410000D03*
%TO.P,J3,13*%
%TO.N,Vdrive*%
X133096000Y-107950000D03*
%TO.P,J3,6*%
%TO.N,Net-(J3-Pad6)*%
X130556000Y-105410000D03*
%TO.P,J3,14*%
%TO.N,Vdrive*%
X130556000Y-107950000D03*
%TO.P,J3,7*%
%TO.N,Net-(J3-Pad7)*%
X128016000Y-105410000D03*
%TO.P,J3,15*%
%TO.N,Vdrive*%
X128016000Y-107950000D03*
%TO.P,J3,8*%
%TO.N,Net-(J3-Pad8)*%
X125476000Y-105410000D03*
%TO.P,J3,16*%
%TO.N,Vdrive*%
X125476000Y-107950000D03*
%TD*%
D17*
%TO.P,J4,1*%
%TO.N,GND*%
X130810000Y-76835000D03*
D16*
%TO.P,J4,2*%
%TO.N,Vdrive*%
X128270000Y-76835000D03*
%TD*%
D15*
%TO.P,JP3,1*%
%TO.N,VCC*%
X129413000Y-86756000D03*
%TO.P,JP3,2*%
%TO.N,Vdrive*%
X129413000Y-85456000D03*
%TD*%
D18*
%TO.N,VCC*%
X147479001Y-86519001D02*
X146304000Y-85344000D01*
X147479001Y-98608001D02*
X147479001Y-86519001D01*
X143015999Y-99219001D02*
X146868001Y-99219001D01*
X142129000Y-100106000D02*
X143015999Y-99219001D01*
X146868001Y-99219001D02*
X147479001Y-98608001D01*
X139700000Y-100106000D02*
X142129000Y-100106000D01*
D19*
X123971999Y-86633999D02*
X122682000Y-85344000D01*
X129290999Y-86633999D02*
X123971999Y-86633999D01*
X129413000Y-86756000D02*
X129290999Y-86633999D01*
X139486003Y-86633999D02*
X143295001Y-82825001D01*
X129535001Y-86633999D02*
X139486003Y-86633999D01*
X129413000Y-86756000D02*
X129535001Y-86633999D01*
D18*
%TO.N,GND*%
X144420002Y-84687998D02*
X146304000Y-82804000D01*
X144420002Y-85905002D02*
X144420002Y-84687998D01*
X143835002Y-86490002D02*
X144420002Y-85905002D01*
X141559998Y-86490002D02*
X143835002Y-86490002D01*
X139500000Y-88550000D02*
X141559998Y-86490002D01*
%TO.N,/SRCLR*%
X140440999Y-98065001D02*
X139700000Y-98806000D01*
X143295001Y-98065001D02*
X140440999Y-98065001D01*
X142148999Y-96918999D02*
X143295001Y-98065001D01*
X123807001Y-96918999D02*
X142148999Y-96918999D01*
X122682000Y-98044000D02*
X123807001Y-96918999D01*
%TO.N,Net-(J1-Pad6)*%
X123807001Y-94378999D02*
X122682000Y-95504000D01*
X142148999Y-94378999D02*
X123807001Y-94378999D01*
X143295001Y-95525001D02*
X142148999Y-94378999D01*
%TO.N,/OE*%
X140095001Y-90445001D02*
X139500000Y-89850000D01*
X143295001Y-90445001D02*
X140095001Y-90445001D01*
X136745002Y-89850000D02*
X136194001Y-89298999D01*
X123807001Y-89298999D02*
X122682000Y-90424000D01*
X136194001Y-89298999D02*
X123807001Y-89298999D01*
X139500000Y-89850000D02*
X136745002Y-89850000D01*
%TO.N,Net-(J2-Pad3)*%
X121506999Y-98608001D02*
X121506999Y-89059001D01*
X134475001Y-101644001D02*
X134410001Y-101709001D01*
X134475001Y-100139999D02*
X134475001Y-101644001D01*
X136215002Y-99480000D02*
X135135000Y-99480000D01*
X138140002Y-101405000D02*
X136215002Y-99480000D01*
X135135000Y-99480000D02*
X134475001Y-100139999D01*
X142495002Y-101405000D02*
X138140002Y-101405000D01*
X121506999Y-89059001D02*
X122682000Y-87884000D01*
X124607999Y-101709001D02*
X121506999Y-98608001D01*
X134410001Y-101709001D02*
X124607999Y-101709001D01*
X143295001Y-100605001D02*
X142495002Y-101405000D01*
%TO.N,Net-(J1-Pad5)*%
X123807001Y-91838999D02*
X122682000Y-92964000D01*
X142148999Y-91838999D02*
X123807001Y-91838999D01*
X143295001Y-92985001D02*
X142148999Y-91838999D01*
%TO.N,Vdrive*%
X125730000Y-80264000D02*
X125984000Y-80264000D01*
D20*
X123925999Y-102193742D02*
X123925999Y-106399999D01*
X120681988Y-98949731D02*
X123925999Y-102193742D01*
X120681988Y-81844010D02*
X120681988Y-98949731D01*
X122261998Y-80264000D02*
X120681988Y-81844010D01*
X123925999Y-106399999D02*
X125476000Y-107950000D01*
X125984000Y-80264000D02*
X122261998Y-80264000D01*
D19*
X129413000Y-83947000D02*
X125730000Y-80264000D01*
X129413000Y-85456000D02*
X129413000Y-83947000D01*
D20*
X125730000Y-79756000D02*
X128270000Y-77216000D01*
X125730000Y-80264000D02*
X125730000Y-79756000D01*
%TD*%
D21*
%TO.N,Vdrive*%
X148946001Y-104933102D02*
X148840349Y-104827450D01*
X148449721Y-104566440D01*
X148015679Y-104386654D01*
X147554902Y-104295000D01*
X147085098Y-104295000D01*
X146624321Y-104386654D01*
X146190279Y-104566440D01*
X145799651Y-104827450D01*
X145467450Y-105159651D01*
X145206440Y-105550279D01*
X145026654Y-105984321D01*
X144935000Y-106445098D01*
X144935000Y-106914902D01*
X145026654Y-107375679D01*
X145206440Y-107809721D01*
X145467450Y-108200349D01*
X145799651Y-108532550D01*
X146190279Y-108793560D01*
X146624321Y-108973346D01*
X147085098Y-109065000D01*
X147554902Y-109065000D01*
X148015679Y-108973346D01*
X148449721Y-108793560D01*
X148840349Y-108532550D01*
X148946001Y-108426898D01*
X148946001Y-109322000D01*
X143812219Y-109322000D01*
X144022920Y-109221641D01*
X144256269Y-109047588D01*
X144451178Y-108831355D01*
X144600157Y-108581252D01*
X144697481Y-108306891D01*
X144576814Y-108077000D01*
X143383000Y-108077000D01*
X143383000Y-108097000D01*
X143129000Y-108097000D01*
X143129000Y-108077000D01*
X140843000Y-108077000D01*
X140843000Y-108097000D01*
X140589000Y-108097000D01*
X140589000Y-108077000D01*
X138303000Y-108077000D01*
X138303000Y-108097000D01*
X138049000Y-108097000D01*
X138049000Y-108077000D01*
X135763000Y-108077000D01*
X135763000Y-108097000D01*
X135509000Y-108097000D01*
X135509000Y-108077000D01*
X133223000Y-108077000D01*
X133223000Y-108097000D01*
X132969000Y-108097000D01*
X132969000Y-108077000D01*
X130683000Y-108077000D01*
X130683000Y-108097000D01*
X130429000Y-108097000D01*
X130429000Y-108077000D01*
X128143000Y-108077000D01*
X128143000Y-108097000D01*
X127889000Y-108097000D01*
X127889000Y-108077000D01*
X125603000Y-108077000D01*
X125603000Y-108097000D01*
X125349000Y-108097000D01*
X125349000Y-108077000D01*
X124155186Y-108077000D01*
X124034519Y-108306891D01*
X124131843Y-108581252D01*
X124280822Y-108831355D01*
X124475731Y-109047588D01*
X124709080Y-109221641D01*
X124919781Y-109322000D01*
X119532000Y-109322000D01*
X119532000Y-108159267D01*
X119559450Y-108200349D01*
X119891651Y-108532550D01*
X120282279Y-108793560D01*
X120716321Y-108973346D01*
X121177098Y-109065000D01*
X121646902Y-109065000D01*
X122107679Y-108973346D01*
X122541721Y-108793560D01*
X122932349Y-108532550D01*
X123264550Y-108200349D01*
X123525560Y-107809721D01*
X123705346Y-107375679D01*
X123797000Y-106914902D01*
X123797000Y-106445098D01*
X123705346Y-105984321D01*
X123525560Y-105550279D01*
X123334101Y-105263740D01*
X123991000Y-105263740D01*
X123991000Y-105556260D01*
X124048068Y-105843158D01*
X124160010Y-106113411D01*
X124322525Y-106356632D01*
X124529368Y-106563475D01*
X124705406Y-106681100D01*
X124475731Y-106852412D01*
X124280822Y-107068645D01*
X124131843Y-107318748D01*
X124034519Y-107593109D01*
X124155186Y-107823000D01*
X125349000Y-107823000D01*
X125349000Y-107803000D01*
X125603000Y-107803000D01*
X125603000Y-107823000D01*
X127889000Y-107823000D01*
X127889000Y-107803000D01*
X128143000Y-107803000D01*
X128143000Y-107823000D01*
X130429000Y-107823000D01*
X130429000Y-107803000D01*
X130683000Y-107803000D01*
X130683000Y-107823000D01*
X132969000Y-107823000D01*
X132969000Y-107803000D01*
X133223000Y-107803000D01*
X133223000Y-107823000D01*
X135509000Y-107823000D01*
X135509000Y-107803000D01*
X135763000Y-107803000D01*
X135763000Y-107823000D01*
X138049000Y-107823000D01*
X138049000Y-107803000D01*
X138303000Y-107803000D01*
X138303000Y-107823000D01*
X140589000Y-107823000D01*
X140589000Y-107803000D01*
X140843000Y-107803000D01*
X140843000Y-107823000D01*
X143129000Y-107823000D01*
X143129000Y-107803000D01*
X143383000Y-107803000D01*
X143383000Y-107823000D01*
X144576814Y-107823000D01*
X144697481Y-107593109D01*
X144600157Y-107318748D01*
X144451178Y-107068645D01*
X144274374Y-106872498D01*
X144350180Y-106849502D01*
X144460494Y-106790537D01*
X144557185Y-106711185D01*
X144636537Y-106614494D01*
X144695502Y-106504180D01*
X144731812Y-106384482D01*
X144744072Y-106260000D01*
X144744072Y-104560000D01*
X144731812Y-104435518D01*
X144695502Y-104315820D01*
X144636537Y-104205506D01*
X144557185Y-104108815D01*
X144460494Y-104029463D01*
X144350180Y-103970498D01*
X144230482Y-103934188D01*
X144106000Y-103921928D01*
X142406000Y-103921928D01*
X142281518Y-103934188D01*
X142161820Y-103970498D01*
X142051506Y-104029463D01*
X141954815Y-104108815D01*
X141875463Y-104205506D01*
X141816498Y-104315820D01*
X141794487Y-104388380D01*
X141662632Y-104256525D01*
X141419411Y-104094010D01*
X141149158Y-103982068D01*
X140862260Y-103925000D01*
X140569740Y-103925000D01*
X140282842Y-103982068D01*
X140012589Y-104094010D01*
X139769368Y-104256525D01*
X139562525Y-104463368D01*
X139446000Y-104637760D01*
X139329475Y-104463368D01*
X139122632Y-104256525D01*
X138879411Y-104094010D01*
X138609158Y-103982068D01*
X138322260Y-103925000D01*
X138029740Y-103925000D01*
X137742842Y-103982068D01*
X137472589Y-104094010D01*
X137229368Y-104256525D01*
X137022525Y-104463368D01*
X136906000Y-104637760D01*
X136789475Y-104463368D01*
X136582632Y-104256525D01*
X136339411Y-104094010D01*
X136069158Y-103982068D01*
X135782260Y-103925000D01*
X135489740Y-103925000D01*
X135202842Y-103982068D01*
X134932589Y-104094010D01*
X134689368Y-104256525D01*
X134482525Y-104463368D01*
X134366000Y-104637760D01*
X134249475Y-104463368D01*
X134042632Y-104256525D01*
X133799411Y-104094010D01*
X133529158Y-103982068D01*
X133242260Y-103925000D01*
X132949740Y-103925000D01*
X132662842Y-103982068D01*
X132392589Y-104094010D01*
X132149368Y-104256525D01*
X131942525Y-104463368D01*
X131826000Y-104637760D01*
X131709475Y-104463368D01*
X131502632Y-104256525D01*
X131259411Y-104094010D01*
X130989158Y-103982068D01*
X130702260Y-103925000D01*
X130409740Y-103925000D01*
X130122842Y-103982068D01*
X129852589Y-104094010D01*
X129609368Y-104256525D01*
X129402525Y-104463368D01*
X129286000Y-104637760D01*
X129169475Y-104463368D01*
X128962632Y-104256525D01*
X128719411Y-104094010D01*
X128449158Y-103982068D01*
X128162260Y-103925000D01*
X127869740Y-103925000D01*
X127582842Y-103982068D01*
X127312589Y-104094010D01*
X127069368Y-104256525D01*
X126862525Y-104463368D01*
X126746000Y-104637760D01*
X126629475Y-104463368D01*
X126422632Y-104256525D01*
X126179411Y-104094010D01*
X125909158Y-103982068D01*
X125622260Y-103925000D01*
X125329740Y-103925000D01*
X125042842Y-103982068D01*
X124772589Y-104094010D01*
X124529368Y-104256525D01*
X124322525Y-104463368D01*
X124160010Y-104706589D01*
X124048068Y-104976842D01*
X123991000Y-105263740D01*
X123334101Y-105263740D01*
X123264550Y-105159651D01*
X122932349Y-104827450D01*
X122541721Y-104566440D01*
X122107679Y-104386654D01*
X121646902Y-104295000D01*
X121177098Y-104295000D01*
X120716321Y-104386654D01*
X120282279Y-104566440D01*
X119891651Y-104827450D01*
X119559450Y-105159651D01*
X119532000Y-105200733D01*
X119532000Y-102743000D01*
X148946001Y-102743000D01*
X148946001Y-104933102D01*
%TA.AperFunction,Conductor*%
D22*
G36*
X148946001Y-104933102D02*
G01*
X148840349Y-104827450D01*
X148449721Y-104566440D01*
X148015679Y-104386654D01*
X147554902Y-104295000D01*
X147085098Y-104295000D01*
X146624321Y-104386654D01*
X146190279Y-104566440D01*
X145799651Y-104827450D01*
X145467450Y-105159651D01*
X145206440Y-105550279D01*
X145026654Y-105984321D01*
X144935000Y-106445098D01*
X144935000Y-106914902D01*
X145026654Y-107375679D01*
X145206440Y-107809721D01*
X145467450Y-108200349D01*
X145799651Y-108532550D01*
X146190279Y-108793560D01*
X146624321Y-108973346D01*
X147085098Y-109065000D01*
X147554902Y-109065000D01*
X148015679Y-108973346D01*
X148449721Y-108793560D01*
X148840349Y-108532550D01*
X148946001Y-108426898D01*
X148946001Y-109322000D01*
X143812219Y-109322000D01*
X144022920Y-109221641D01*
X144256269Y-109047588D01*
X144451178Y-108831355D01*
X144600157Y-108581252D01*
X144697481Y-108306891D01*
X144576814Y-108077000D01*
X143383000Y-108077000D01*
X143383000Y-108097000D01*
X143129000Y-108097000D01*
X143129000Y-108077000D01*
X140843000Y-108077000D01*
X140843000Y-108097000D01*
X140589000Y-108097000D01*
X140589000Y-108077000D01*
X138303000Y-108077000D01*
X138303000Y-108097000D01*
X138049000Y-108097000D01*
X138049000Y-108077000D01*
X135763000Y-108077000D01*
X135763000Y-108097000D01*
X135509000Y-108097000D01*
X135509000Y-108077000D01*
X133223000Y-108077000D01*
X133223000Y-108097000D01*
X132969000Y-108097000D01*
X132969000Y-108077000D01*
X130683000Y-108077000D01*
X130683000Y-108097000D01*
X130429000Y-108097000D01*
X130429000Y-108077000D01*
X128143000Y-108077000D01*
X128143000Y-108097000D01*
X127889000Y-108097000D01*
X127889000Y-108077000D01*
X125603000Y-108077000D01*
X125603000Y-108097000D01*
X125349000Y-108097000D01*
X125349000Y-108077000D01*
X124155186Y-108077000D01*
X124034519Y-108306891D01*
X124131843Y-108581252D01*
X124280822Y-108831355D01*
X124475731Y-109047588D01*
X124709080Y-109221641D01*
X124919781Y-109322000D01*
X119532000Y-109322000D01*
X119532000Y-108159267D01*
X119559450Y-108200349D01*
X119891651Y-108532550D01*
X120282279Y-108793560D01*
X120716321Y-108973346D01*
X121177098Y-109065000D01*
X121646902Y-109065000D01*
X122107679Y-108973346D01*
X122541721Y-108793560D01*
X122932349Y-108532550D01*
X123264550Y-108200349D01*
X123525560Y-107809721D01*
X123705346Y-107375679D01*
X123797000Y-106914902D01*
X123797000Y-106445098D01*
X123705346Y-105984321D01*
X123525560Y-105550279D01*
X123334101Y-105263740D01*
X123991000Y-105263740D01*
X123991000Y-105556260D01*
X124048068Y-105843158D01*
X124160010Y-106113411D01*
X124322525Y-106356632D01*
X124529368Y-106563475D01*
X124705406Y-106681100D01*
X124475731Y-106852412D01*
X124280822Y-107068645D01*
X124131843Y-107318748D01*
X124034519Y-107593109D01*
X124155186Y-107823000D01*
X125349000Y-107823000D01*
X125349000Y-107803000D01*
X125603000Y-107803000D01*
X125603000Y-107823000D01*
X127889000Y-107823000D01*
X127889000Y-107803000D01*
X128143000Y-107803000D01*
X128143000Y-107823000D01*
X130429000Y-107823000D01*
X130429000Y-107803000D01*
X130683000Y-107803000D01*
X130683000Y-107823000D01*
X132969000Y-107823000D01*
X132969000Y-107803000D01*
X133223000Y-107803000D01*
X133223000Y-107823000D01*
X135509000Y-107823000D01*
X135509000Y-107803000D01*
X135763000Y-107803000D01*
X135763000Y-107823000D01*
X138049000Y-107823000D01*
X138049000Y-107803000D01*
X138303000Y-107803000D01*
X138303000Y-107823000D01*
X140589000Y-107823000D01*
X140589000Y-107803000D01*
X140843000Y-107803000D01*
X140843000Y-107823000D01*
X143129000Y-107823000D01*
X143129000Y-107803000D01*
X143383000Y-107803000D01*
X143383000Y-107823000D01*
X144576814Y-107823000D01*
X144697481Y-107593109D01*
X144600157Y-107318748D01*
X144451178Y-107068645D01*
X144274374Y-106872498D01*
X144350180Y-106849502D01*
X144460494Y-106790537D01*
X144557185Y-106711185D01*
X144636537Y-106614494D01*
X144695502Y-106504180D01*
X144731812Y-106384482D01*
X144744072Y-106260000D01*
X144744072Y-104560000D01*
X144731812Y-104435518D01*
X144695502Y-104315820D01*
X144636537Y-104205506D01*
X144557185Y-104108815D01*
X144460494Y-104029463D01*
X144350180Y-103970498D01*
X144230482Y-103934188D01*
X144106000Y-103921928D01*
X142406000Y-103921928D01*
X142281518Y-103934188D01*
X142161820Y-103970498D01*
X142051506Y-104029463D01*
X141954815Y-104108815D01*
X141875463Y-104205506D01*
X141816498Y-104315820D01*
X141794487Y-104388380D01*
X141662632Y-104256525D01*
X141419411Y-104094010D01*
X141149158Y-103982068D01*
X140862260Y-103925000D01*
X140569740Y-103925000D01*
X140282842Y-103982068D01*
X140012589Y-104094010D01*
X139769368Y-104256525D01*
X139562525Y-104463368D01*
X139446000Y-104637760D01*
X139329475Y-104463368D01*
X139122632Y-104256525D01*
X138879411Y-104094010D01*
X138609158Y-103982068D01*
X138322260Y-103925000D01*
X138029740Y-103925000D01*
X137742842Y-103982068D01*
X137472589Y-104094010D01*
X137229368Y-104256525D01*
X137022525Y-104463368D01*
X136906000Y-104637760D01*
X136789475Y-104463368D01*
X136582632Y-104256525D01*
X136339411Y-104094010D01*
X136069158Y-103982068D01*
X135782260Y-103925000D01*
X135489740Y-103925000D01*
X135202842Y-103982068D01*
X134932589Y-104094010D01*
X134689368Y-104256525D01*
X134482525Y-104463368D01*
X134366000Y-104637760D01*
X134249475Y-104463368D01*
X134042632Y-104256525D01*
X133799411Y-104094010D01*
X133529158Y-103982068D01*
X133242260Y-103925000D01*
X132949740Y-103925000D01*
X132662842Y-103982068D01*
X132392589Y-104094010D01*
X132149368Y-104256525D01*
X131942525Y-104463368D01*
X131826000Y-104637760D01*
X131709475Y-104463368D01*
X131502632Y-104256525D01*
X131259411Y-104094010D01*
X130989158Y-103982068D01*
X130702260Y-103925000D01*
X130409740Y-103925000D01*
X130122842Y-103982068D01*
X129852589Y-104094010D01*
X129609368Y-104256525D01*
X129402525Y-104463368D01*
X129286000Y-104637760D01*
X129169475Y-104463368D01*
X128962632Y-104256525D01*
X128719411Y-104094010D01*
X128449158Y-103982068D01*
X128162260Y-103925000D01*
X127869740Y-103925000D01*
X127582842Y-103982068D01*
X127312589Y-104094010D01*
X127069368Y-104256525D01*
X126862525Y-104463368D01*
X126746000Y-104637760D01*
X126629475Y-104463368D01*
X126422632Y-104256525D01*
X126179411Y-104094010D01*
X125909158Y-103982068D01*
X125622260Y-103925000D01*
X125329740Y-103925000D01*
X125042842Y-103982068D01*
X124772589Y-104094010D01*
X124529368Y-104256525D01*
X124322525Y-104463368D01*
X124160010Y-104706589D01*
X124048068Y-104976842D01*
X123991000Y-105263740D01*
X123334101Y-105263740D01*
X123264550Y-105159651D01*
X122932349Y-104827450D01*
X122541721Y-104566440D01*
X122107679Y-104386654D01*
X121646902Y-104295000D01*
X121177098Y-104295000D01*
X120716321Y-104386654D01*
X120282279Y-104566440D01*
X119891651Y-104827450D01*
X119559450Y-105159651D01*
X119532000Y-105200733D01*
X119532000Y-102743000D01*
X148946001Y-102743000D01*
X148946001Y-104933102D01*
G37*
%TD.AperFunction*%
%TD*%
D21*
%TO.N,GND*%
X145799651Y-75617450D02*
X145467450Y-75949651D01*
X145206440Y-76340279D01*
X145026654Y-76774321D01*
X144935000Y-77235098D01*
X144935000Y-77704902D01*
X145026654Y-78165679D01*
X145206440Y-78599721D01*
X145467450Y-78990349D01*
X145799651Y-79322550D01*
X146190279Y-79583560D01*
X146624321Y-79763346D01*
X147085098Y-79855000D01*
X147554902Y-79855000D01*
X148015679Y-79763346D01*
X148449721Y-79583560D01*
X148840349Y-79322550D01*
X148946000Y-79216899D01*
X148946000Y-83698194D01*
X147786255Y-83713062D01*
X147792072Y-83654000D01*
X147789000Y-83089750D01*
X147630250Y-82931000D01*
X146431000Y-82931000D01*
X146431000Y-82951000D01*
X146177000Y-82951000D01*
X146177000Y-82931000D01*
X144977750Y-82931000D01*
X144819000Y-83089750D01*
X144815928Y-83654000D01*
X144825483Y-83751021D01*
X144392830Y-83756568D01*
X144409638Y-83739760D01*
X144566681Y-83504728D01*
X144674854Y-83243575D01*
X144730001Y-82966336D01*
X144730001Y-82683666D01*
X144674854Y-82406427D01*
X144566681Y-82145274D01*
X144438877Y-81954000D01*
X144815928Y-81954000D01*
X144819000Y-82518250D01*
X144977750Y-82677000D01*
X146177000Y-82677000D01*
X146177000Y-81477750D01*
X146431000Y-81477750D01*
X146431000Y-82677000D01*
X147630250Y-82677000D01*
X147789000Y-82518250D01*
X147792072Y-81954000D01*
X147779812Y-81829518D01*
X147743502Y-81709820D01*
X147684537Y-81599506D01*
X147605185Y-81502815D01*
X147508494Y-81423463D01*
X147398180Y-81364498D01*
X147278482Y-81328188D01*
X147154000Y-81315928D01*
X146589750Y-81319000D01*
X146431000Y-81477750D01*
X146177000Y-81477750D01*
X146018250Y-81319000D01*
X145454000Y-81315928D01*
X145329518Y-81328188D01*
X145209820Y-81364498D01*
X145099506Y-81423463D01*
X145002815Y-81502815D01*
X144923463Y-81599506D01*
X144864498Y-81709820D01*
X144828188Y-81829518D01*
X144815928Y-81954000D01*
X144438877Y-81954000D01*
X144409638Y-81910242D01*
X144209760Y-81710364D01*
X143974728Y-81553321D01*
X143713575Y-81445148D01*
X143436336Y-81390001D01*
X143153666Y-81390001D01*
X142876427Y-81445148D01*
X142615274Y-81553321D01*
X142380242Y-81710364D01*
X142180364Y-81910242D01*
X142023321Y-82145274D01*
X141915148Y-82406427D01*
X141860001Y-82683666D01*
X141860001Y-82966336D01*
X141866984Y-83001440D01*
X141069246Y-83799178D01*
X137070186Y-83850448D01*
X137100813Y-83749483D01*
X137113073Y-83625001D01*
X137113073Y-82025001D01*
X137100813Y-81900519D01*
X137064503Y-81780821D01*
X137005538Y-81670507D01*
X136926186Y-81573816D01*
X136829495Y-81494464D01*
X136719181Y-81435499D01*
X136599483Y-81399189D01*
X136475001Y-81386929D01*
X134875001Y-81386929D01*
X134750519Y-81399189D01*
X134630821Y-81435499D01*
X134520507Y-81494464D01*
X134423816Y-81573816D01*
X134344464Y-81670507D01*
X134310132Y-81734736D01*
X134264759Y-81689363D01*
X134029727Y-81532320D01*
X134019135Y-81527933D01*
X134205131Y-81416385D01*
X134413519Y-81227414D01*
X134581037Y-81001420D01*
X134701246Y-80747087D01*
X134741904Y-80613039D01*
X134676890Y-80494702D01*
X136172903Y-80494702D01*
X136244486Y-80738671D01*
X136499996Y-80859571D01*
X136774184Y-80928300D01*
X137056512Y-80942217D01*
X137336130Y-80900787D01*
X137602292Y-80805603D01*
X137727514Y-80738671D01*
X137799097Y-80494702D01*
X136986000Y-79681605D01*
X136172903Y-80494702D01*
X134676890Y-80494702D01*
X134619915Y-80391000D01*
X133477000Y-80391000D01*
X133477000Y-80411000D01*
X133223000Y-80411000D01*
X133223000Y-80391000D01*
X132080085Y-80391000D01*
X131958096Y-80613039D01*
X131998754Y-80747087D01*
X132118963Y-81001420D01*
X132286481Y-81227414D01*
X132494869Y-81416385D01*
X132680865Y-81527933D01*
X132670273Y-81532320D01*
X132435241Y-81689363D01*
X132235363Y-81889241D01*
X132078320Y-82124273D01*
X131970147Y-82385426D01*
X131915000Y-82662665D01*
X131915000Y-82945335D01*
X131970147Y-83222574D01*
X132078320Y-83483727D01*
X132235363Y-83718759D01*
X132426586Y-83909982D01*
X130301319Y-83937229D01*
X130298000Y-83903531D01*
X130298000Y-83903523D01*
X130285195Y-83773510D01*
X130268586Y-83718759D01*
X130234589Y-83606686D01*
X130152411Y-83452941D01*
X130069532Y-83351953D01*
X130069530Y-83351951D01*
X130041817Y-83318183D01*
X130008049Y-83290470D01*
X129667000Y-82949421D01*
X129667000Y-79914961D01*
X131958096Y-79914961D01*
X132080085Y-80137000D01*
X133223000Y-80137000D01*
X133223000Y-78993376D01*
X133477000Y-78993376D01*
X133477000Y-80137000D01*
X134619915Y-80137000D01*
X134741904Y-79914961D01*
X134701246Y-79780913D01*
X134602747Y-79572512D01*
X135545783Y-79572512D01*
X135587213Y-79852130D01*
X135682397Y-80118292D01*
X135749329Y-80243514D01*
X135993298Y-80315097D01*
X136806395Y-79502000D01*
X137165605Y-79502000D01*
X137978702Y-80315097D01*
X138222671Y-80243514D01*
X138343571Y-79988004D01*
X138412300Y-79713816D01*
X138426217Y-79431488D01*
X138415724Y-79360665D01*
X140551000Y-79360665D01*
X140551000Y-79643335D01*
X140606147Y-79920574D01*
X140714320Y-80181727D01*
X140871363Y-80416759D01*
X141071241Y-80616637D01*
X141306273Y-80773680D01*
X141567426Y-80881853D01*
X141844665Y-80937000D01*
X142127335Y-80937000D01*
X142404574Y-80881853D01*
X142665727Y-80773680D01*
X142900759Y-80616637D01*
X143100637Y-80416759D01*
X143257680Y-80181727D01*
X143365853Y-79920574D01*
X143421000Y-79643335D01*
X143421000Y-79360665D01*
X143365853Y-79083426D01*
X143257680Y-78822273D01*
X143100637Y-78587241D01*
X142900759Y-78387363D01*
X142665727Y-78230320D01*
X142404574Y-78122147D01*
X142127335Y-78067000D01*
X141844665Y-78067000D01*
X141567426Y-78122147D01*
X141306273Y-78230320D01*
X141071241Y-78387363D01*
X140871363Y-78587241D01*
X140714320Y-78822273D01*
X140606147Y-79083426D01*
X140551000Y-79360665D01*
X138415724Y-79360665D01*
X138384787Y-79151870D01*
X138289603Y-78885708D01*
X138222671Y-78760486D01*
X137978702Y-78688903D01*
X137165605Y-79502000D01*
X136806395Y-79502000D01*
X135993298Y-78688903D01*
X135749329Y-78760486D01*
X135628429Y-79015996D01*
X135559700Y-79290184D01*
X135545783Y-79572512D01*
X134602747Y-79572512D01*
X134581037Y-79526580D01*
X134413519Y-79300586D01*
X134205131Y-79111615D01*
X133963881Y-78966930D01*
X133699040Y-78872091D01*
X133477000Y-78993376D01*
X133223000Y-78993376D01*
X133000960Y-78872091D01*
X132736119Y-78966930D01*
X132494869Y-79111615D01*
X132286481Y-79300586D01*
X132118963Y-79526580D01*
X131998754Y-79780913D01*
X131958096Y-79914961D01*
X129667000Y-79914961D01*
X129667000Y-78509298D01*
X136172903Y-78509298D01*
X136986000Y-79322395D01*
X137799097Y-78509298D01*
X137727514Y-78265329D01*
X137472004Y-78144429D01*
X137197816Y-78075700D01*
X136915488Y-78061783D01*
X136635870Y-78103213D01*
X136369708Y-78198397D01*
X136244486Y-78265329D01*
X136172903Y-78509298D01*
X129667000Y-78509298D01*
X129667000Y-78248407D01*
X129715820Y-78274502D01*
X129835518Y-78310812D01*
X129960000Y-78323072D01*
X130524250Y-78320000D01*
X130683000Y-78161250D01*
X130683000Y-76962000D01*
X130937000Y-76962000D01*
X130937000Y-78161250D01*
X131095750Y-78320000D01*
X131660000Y-78323072D01*
X131784482Y-78310812D01*
X131904180Y-78274502D01*
X132014494Y-78215537D01*
X132111185Y-78136185D01*
X132190537Y-78039494D01*
X132249502Y-77929180D01*
X132285812Y-77809482D01*
X132298072Y-77685000D01*
X132295000Y-77120750D01*
X132136250Y-76962000D01*
X130937000Y-76962000D01*
X130683000Y-76962000D01*
X130663000Y-76962000D01*
X130663000Y-76708000D01*
X130683000Y-76708000D01*
X130683000Y-76688000D01*
X130937000Y-76688000D01*
X130937000Y-76708000D01*
X132136250Y-76708000D01*
X132295000Y-76549250D01*
X132298072Y-75985000D01*
X132285812Y-75860518D01*
X132249502Y-75740820D01*
X132190537Y-75630506D01*
X132157295Y-75590000D01*
X145840733Y-75590000D01*
X145799651Y-75617450D01*
%TA.AperFunction,Conductor*%
D22*
G36*
X145799651Y-75617450D02*
G01*
X145467450Y-75949651D01*
X145206440Y-76340279D01*
X145026654Y-76774321D01*
X144935000Y-77235098D01*
X144935000Y-77704902D01*
X145026654Y-78165679D01*
X145206440Y-78599721D01*
X145467450Y-78990349D01*
X145799651Y-79322550D01*
X146190279Y-79583560D01*
X146624321Y-79763346D01*
X147085098Y-79855000D01*
X147554902Y-79855000D01*
X148015679Y-79763346D01*
X148449721Y-79583560D01*
X148840349Y-79322550D01*
X148946000Y-79216899D01*
X148946000Y-83698194D01*
X147786255Y-83713062D01*
X147792072Y-83654000D01*
X147789000Y-83089750D01*
X147630250Y-82931000D01*
X146431000Y-82931000D01*
X146431000Y-82951000D01*
X146177000Y-82951000D01*
X146177000Y-82931000D01*
X144977750Y-82931000D01*
X144819000Y-83089750D01*
X144815928Y-83654000D01*
X144825483Y-83751021D01*
X144392830Y-83756568D01*
X144409638Y-83739760D01*
X144566681Y-83504728D01*
X144674854Y-83243575D01*
X144730001Y-82966336D01*
X144730001Y-82683666D01*
X144674854Y-82406427D01*
X144566681Y-82145274D01*
X144438877Y-81954000D01*
X144815928Y-81954000D01*
X144819000Y-82518250D01*
X144977750Y-82677000D01*
X146177000Y-82677000D01*
X146177000Y-81477750D01*
X146431000Y-81477750D01*
X146431000Y-82677000D01*
X147630250Y-82677000D01*
X147789000Y-82518250D01*
X147792072Y-81954000D01*
X147779812Y-81829518D01*
X147743502Y-81709820D01*
X147684537Y-81599506D01*
X147605185Y-81502815D01*
X147508494Y-81423463D01*
X147398180Y-81364498D01*
X147278482Y-81328188D01*
X147154000Y-81315928D01*
X146589750Y-81319000D01*
X146431000Y-81477750D01*
X146177000Y-81477750D01*
X146018250Y-81319000D01*
X145454000Y-81315928D01*
X145329518Y-81328188D01*
X145209820Y-81364498D01*
X145099506Y-81423463D01*
X145002815Y-81502815D01*
X144923463Y-81599506D01*
X144864498Y-81709820D01*
X144828188Y-81829518D01*
X144815928Y-81954000D01*
X144438877Y-81954000D01*
X144409638Y-81910242D01*
X144209760Y-81710364D01*
X143974728Y-81553321D01*
X143713575Y-81445148D01*
X143436336Y-81390001D01*
X143153666Y-81390001D01*
X142876427Y-81445148D01*
X142615274Y-81553321D01*
X142380242Y-81710364D01*
X142180364Y-81910242D01*
X142023321Y-82145274D01*
X141915148Y-82406427D01*
X141860001Y-82683666D01*
X141860001Y-82966336D01*
X141866984Y-83001440D01*
X141069246Y-83799178D01*
X137070186Y-83850448D01*
X137100813Y-83749483D01*
X137113073Y-83625001D01*
X137113073Y-82025001D01*
X137100813Y-81900519D01*
X137064503Y-81780821D01*
X137005538Y-81670507D01*
X136926186Y-81573816D01*
X136829495Y-81494464D01*
X136719181Y-81435499D01*
X136599483Y-81399189D01*
X136475001Y-81386929D01*
X134875001Y-81386929D01*
X134750519Y-81399189D01*
X134630821Y-81435499D01*
X134520507Y-81494464D01*
X134423816Y-81573816D01*
X134344464Y-81670507D01*
X134310132Y-81734736D01*
X134264759Y-81689363D01*
X134029727Y-81532320D01*
X134019135Y-81527933D01*
X134205131Y-81416385D01*
X134413519Y-81227414D01*
X134581037Y-81001420D01*
X134701246Y-80747087D01*
X134741904Y-80613039D01*
X134676890Y-80494702D01*
X136172903Y-80494702D01*
X136244486Y-80738671D01*
X136499996Y-80859571D01*
X136774184Y-80928300D01*
X137056512Y-80942217D01*
X137336130Y-80900787D01*
X137602292Y-80805603D01*
X137727514Y-80738671D01*
X137799097Y-80494702D01*
X136986000Y-79681605D01*
X136172903Y-80494702D01*
X134676890Y-80494702D01*
X134619915Y-80391000D01*
X133477000Y-80391000D01*
X133477000Y-80411000D01*
X133223000Y-80411000D01*
X133223000Y-80391000D01*
X132080085Y-80391000D01*
X131958096Y-80613039D01*
X131998754Y-80747087D01*
X132118963Y-81001420D01*
X132286481Y-81227414D01*
X132494869Y-81416385D01*
X132680865Y-81527933D01*
X132670273Y-81532320D01*
X132435241Y-81689363D01*
X132235363Y-81889241D01*
X132078320Y-82124273D01*
X131970147Y-82385426D01*
X131915000Y-82662665D01*
X131915000Y-82945335D01*
X131970147Y-83222574D01*
X132078320Y-83483727D01*
X132235363Y-83718759D01*
X132426586Y-83909982D01*
X130301319Y-83937229D01*
X130298000Y-83903531D01*
X130298000Y-83903523D01*
X130285195Y-83773510D01*
X130268586Y-83718759D01*
X130234589Y-83606686D01*
X130152411Y-83452941D01*
X130069532Y-83351953D01*
X130069530Y-83351951D01*
X130041817Y-83318183D01*
X130008049Y-83290470D01*
X129667000Y-82949421D01*
X129667000Y-79914961D01*
X131958096Y-79914961D01*
X132080085Y-80137000D01*
X133223000Y-80137000D01*
X133223000Y-78993376D01*
X133477000Y-78993376D01*
X133477000Y-80137000D01*
X134619915Y-80137000D01*
X134741904Y-79914961D01*
X134701246Y-79780913D01*
X134602747Y-79572512D01*
X135545783Y-79572512D01*
X135587213Y-79852130D01*
X135682397Y-80118292D01*
X135749329Y-80243514D01*
X135993298Y-80315097D01*
X136806395Y-79502000D01*
X137165605Y-79502000D01*
X137978702Y-80315097D01*
X138222671Y-80243514D01*
X138343571Y-79988004D01*
X138412300Y-79713816D01*
X138426217Y-79431488D01*
X138415724Y-79360665D01*
X140551000Y-79360665D01*
X140551000Y-79643335D01*
X140606147Y-79920574D01*
X140714320Y-80181727D01*
X140871363Y-80416759D01*
X141071241Y-80616637D01*
X141306273Y-80773680D01*
X141567426Y-80881853D01*
X141844665Y-80937000D01*
X142127335Y-80937000D01*
X142404574Y-80881853D01*
X142665727Y-80773680D01*
X142900759Y-80616637D01*
X143100637Y-80416759D01*
X143257680Y-80181727D01*
X143365853Y-79920574D01*
X143421000Y-79643335D01*
X143421000Y-79360665D01*
X143365853Y-79083426D01*
X143257680Y-78822273D01*
X143100637Y-78587241D01*
X142900759Y-78387363D01*
X142665727Y-78230320D01*
X142404574Y-78122147D01*
X142127335Y-78067000D01*
X141844665Y-78067000D01*
X141567426Y-78122147D01*
X141306273Y-78230320D01*
X141071241Y-78387363D01*
X140871363Y-78587241D01*
X140714320Y-78822273D01*
X140606147Y-79083426D01*
X140551000Y-79360665D01*
X138415724Y-79360665D01*
X138384787Y-79151870D01*
X138289603Y-78885708D01*
X138222671Y-78760486D01*
X137978702Y-78688903D01*
X137165605Y-79502000D01*
X136806395Y-79502000D01*
X135993298Y-78688903D01*
X135749329Y-78760486D01*
X135628429Y-79015996D01*
X135559700Y-79290184D01*
X135545783Y-79572512D01*
X134602747Y-79572512D01*
X134581037Y-79526580D01*
X134413519Y-79300586D01*
X134205131Y-79111615D01*
X133963881Y-78966930D01*
X133699040Y-78872091D01*
X133477000Y-78993376D01*
X133223000Y-78993376D01*
X133000960Y-78872091D01*
X132736119Y-78966930D01*
X132494869Y-79111615D01*
X132286481Y-79300586D01*
X132118963Y-79526580D01*
X131998754Y-79780913D01*
X131958096Y-79914961D01*
X129667000Y-79914961D01*
X129667000Y-78509298D01*
X136172903Y-78509298D01*
X136986000Y-79322395D01*
X137799097Y-78509298D01*
X137727514Y-78265329D01*
X137472004Y-78144429D01*
X137197816Y-78075700D01*
X136915488Y-78061783D01*
X136635870Y-78103213D01*
X136369708Y-78198397D01*
X136244486Y-78265329D01*
X136172903Y-78509298D01*
X129667000Y-78509298D01*
X129667000Y-78248407D01*
X129715820Y-78274502D01*
X129835518Y-78310812D01*
X129960000Y-78323072D01*
X130524250Y-78320000D01*
X130683000Y-78161250D01*
X130683000Y-76962000D01*
X130937000Y-76962000D01*
X130937000Y-78161250D01*
X131095750Y-78320000D01*
X131660000Y-78323072D01*
X131784482Y-78310812D01*
X131904180Y-78274502D01*
X132014494Y-78215537D01*
X132111185Y-78136185D01*
X132190537Y-78039494D01*
X132249502Y-77929180D01*
X132285812Y-77809482D01*
X132298072Y-77685000D01*
X132295000Y-77120750D01*
X132136250Y-76962000D01*
X130937000Y-76962000D01*
X130683000Y-76962000D01*
X130663000Y-76962000D01*
X130663000Y-76708000D01*
X130683000Y-76708000D01*
X130683000Y-76688000D01*
X130937000Y-76688000D01*
X130937000Y-76708000D01*
X132136250Y-76708000D01*
X132295000Y-76549250D01*
X132298072Y-75985000D01*
X132285812Y-75860518D01*
X132249502Y-75740820D01*
X132190537Y-75630506D01*
X132157295Y-75590000D01*
X145840733Y-75590000D01*
X145799651Y-75617450D01*
G37*
%TD.AperFunction*%
%TD*%
M02*
