%TF.GenerationSoftware,KiCad,Pcbnew,5.1.7+dfsg1-1*%
%TF.CreationDate,2020-10-05T18:44:40-04:00*%
%TF.ProjectId,74HC595Breakout,37344843-3539-4354-9272-65616b6f7574,rev?*%
%TF.SameCoordinates,Original*%
%TF.FileFunction,Legend,Top*%
%TF.FilePolarity,Positive*%
%FSLAX46Y46*%
G04 Gerber Fmt 4.6, Leading zero omitted, Abs format (unit mm)*
G04 Created by KiCad (PCBNEW 5.1.7+dfsg1-1) date 2020-10-05 18:44:40*
%MOMM*%
%LPD*%
G01*
G04 APERTURE LIST*
%ADD10C,0.120000*%
%ADD11C,0.150000*%
G04 APERTURE END LIST*
D10*
%TO.C,U2*%
X126890000Y-101914000D02*
X128540000Y-101914000D01*
X126890000Y-78934000D02*
X126890000Y-101914000D01*
X132190000Y-78934000D02*
X126890000Y-78934000D01*
X132190000Y-101914000D02*
X132190000Y-78934000D01*
X130540000Y-101914000D02*
X132190000Y-101914000D01*
X128540000Y-101914000D02*
G75*
G02*
X130540000Y-101914000I1000000J0D01*
G01*
%TO.C,C1*%
X141956000Y-80872000D02*
X137016000Y-80872000D01*
X141956000Y-78132000D02*
X137016000Y-78132000D01*
X141956000Y-80872000D02*
X141956000Y-80557000D01*
X141956000Y-78447000D02*
X141956000Y-78132000D01*
X137016000Y-80872000D02*
X137016000Y-80557000D01*
X137016000Y-78447000D02*
X137016000Y-78132000D01*
%TO.C,U1*%
X138485001Y-81495001D02*
X136835001Y-81495001D01*
X136835001Y-81495001D02*
X136835001Y-101935001D01*
X136835001Y-101935001D02*
X142135001Y-101935001D01*
X142135001Y-101935001D02*
X142135001Y-81495001D01*
X142135001Y-81495001D02*
X140485001Y-81495001D01*
X140485001Y-81495001D02*
G75*
G02*
X138485001Y-81495001I-1000000J0D01*
G01*
%TO.C,J1*%
X144974000Y-81474000D02*
X146304000Y-81474000D01*
X144974000Y-82804000D02*
X144974000Y-81474000D01*
X144974000Y-84074000D02*
X147634000Y-84074000D01*
X147634000Y-84074000D02*
X147634000Y-99374000D01*
X144974000Y-84074000D02*
X144974000Y-99374000D01*
X144974000Y-99374000D02*
X147634000Y-99374000D01*
%TO.C,J2*%
X121352000Y-99374000D02*
X124012000Y-99374000D01*
X121352000Y-84074000D02*
X121352000Y-99374000D01*
X124012000Y-84074000D02*
X124012000Y-99374000D01*
X121352000Y-84074000D02*
X124012000Y-84074000D01*
X121352000Y-82804000D02*
X121352000Y-81474000D01*
X121352000Y-81474000D02*
X122682000Y-81474000D01*
%TO.C,J3*%
X124146000Y-104080000D02*
X124146000Y-109280000D01*
X141986000Y-104080000D02*
X124146000Y-104080000D01*
X144586000Y-109280000D02*
X124146000Y-109280000D01*
X141986000Y-104080000D02*
X141986000Y-106680000D01*
X141986000Y-106680000D02*
X144586000Y-106680000D01*
X144586000Y-106680000D02*
X144586000Y-109280000D01*
X143256000Y-104080000D02*
X144586000Y-104080000D01*
X144586000Y-104080000D02*
X144586000Y-105410000D01*
%TO.C,J4*%
X132140000Y-75505000D02*
X132140000Y-76835000D01*
X130810000Y-75505000D02*
X132140000Y-75505000D01*
X129540000Y-75505000D02*
X129540000Y-78165000D01*
X129540000Y-78165000D02*
X126940000Y-78165000D01*
X129540000Y-75505000D02*
X126940000Y-75505000D01*
X126940000Y-75505000D02*
X126940000Y-78165000D01*
%TO.C,U2*%
D11*
X128778095Y-99274380D02*
X128778095Y-100083904D01*
X128825714Y-100179142D01*
X128873333Y-100226761D01*
X128968571Y-100274380D01*
X129159047Y-100274380D01*
X129254285Y-100226761D01*
X129301904Y-100179142D01*
X129349523Y-100083904D01*
X129349523Y-99274380D01*
X129778095Y-99369619D02*
X129825714Y-99322000D01*
X129920952Y-99274380D01*
X130159047Y-99274380D01*
X130254285Y-99322000D01*
X130301904Y-99369619D01*
X130349523Y-99464857D01*
X130349523Y-99560095D01*
X130301904Y-99702952D01*
X129730476Y-100274380D01*
X130349523Y-100274380D01*
%TO.C,C1*%
X139319333Y-79859142D02*
X139271714Y-79906761D01*
X139128857Y-79954380D01*
X139033619Y-79954380D01*
X138890761Y-79906761D01*
X138795523Y-79811523D01*
X138747904Y-79716285D01*
X138700285Y-79525809D01*
X138700285Y-79382952D01*
X138747904Y-79192476D01*
X138795523Y-79097238D01*
X138890761Y-79002000D01*
X139033619Y-78954380D01*
X139128857Y-78954380D01*
X139271714Y-79002000D01*
X139319333Y-79049619D01*
X140271714Y-79954380D02*
X139700285Y-79954380D01*
X139986000Y-79954380D02*
X139986000Y-78954380D01*
X139890761Y-79097238D01*
X139795523Y-79192476D01*
X139700285Y-79240095D01*
%TO.C,U1*%
X138988095Y-82702380D02*
X138988095Y-83511904D01*
X139035714Y-83607142D01*
X139083333Y-83654761D01*
X139178571Y-83702380D01*
X139369047Y-83702380D01*
X139464285Y-83654761D01*
X139511904Y-83607142D01*
X139559523Y-83511904D01*
X139559523Y-82702380D01*
X140559523Y-83702380D02*
X139988095Y-83702380D01*
X140273809Y-83702380D02*
X140273809Y-82702380D01*
X140178571Y-82845238D01*
X140083333Y-82940476D01*
X139988095Y-82988095D01*
%TO.C,J1*%
X145970666Y-99906380D02*
X145970666Y-100620666D01*
X145923047Y-100763523D01*
X145827809Y-100858761D01*
X145684952Y-100906380D01*
X145589714Y-100906380D01*
X146970666Y-100906380D02*
X146399238Y-100906380D01*
X146684952Y-100906380D02*
X146684952Y-99906380D01*
X146589714Y-100049238D01*
X146494476Y-100144476D01*
X146399238Y-100192095D01*
%TO.C,J2*%
X122248666Y-99956380D02*
X122248666Y-100670666D01*
X122201047Y-100813523D01*
X122105809Y-100908761D01*
X121962952Y-100956380D01*
X121867714Y-100956380D01*
X122677238Y-100051619D02*
X122724857Y-100004000D01*
X122820095Y-99956380D01*
X123058190Y-99956380D01*
X123153428Y-100004000D01*
X123201047Y-100051619D01*
X123248666Y-100146857D01*
X123248666Y-100242095D01*
X123201047Y-100384952D01*
X122629619Y-100956380D01*
X123248666Y-100956380D01*
%TO.C,J3*%
X122348666Y-103592380D02*
X122348666Y-104306666D01*
X122301047Y-104449523D01*
X122205809Y-104544761D01*
X122062952Y-104592380D01*
X121967714Y-104592380D01*
X122729619Y-103592380D02*
X123348666Y-103592380D01*
X123015333Y-103973333D01*
X123158190Y-103973333D01*
X123253428Y-104020952D01*
X123301047Y-104068571D01*
X123348666Y-104163809D01*
X123348666Y-104401904D01*
X123301047Y-104497142D01*
X123253428Y-104544761D01*
X123158190Y-104592380D01*
X122872476Y-104592380D01*
X122777238Y-104544761D01*
X122729619Y-104497142D01*
%TO.C,J4*%
X132889666Y-76922380D02*
X132889666Y-77636666D01*
X132842047Y-77779523D01*
X132746809Y-77874761D01*
X132603952Y-77922380D01*
X132508714Y-77922380D01*
X133794428Y-77255714D02*
X133794428Y-77922380D01*
X133556333Y-76874761D02*
X133318238Y-77589047D01*
X133937285Y-77589047D01*
%TD*%
M02*
