%TF.GenerationSoftware,KiCad,Pcbnew,5.1.6+dfsg1-1*%
%TF.CreationDate,2020-09-04T14:06:56-04:00*%
%TF.ProjectId,74HC595Breakout,37344843-3539-4354-9272-65616b6f7574,rev?*%
%TF.SameCoordinates,Original*%
%TF.FileFunction,Soldermask,Bot*%
%TF.FilePolarity,Negative*%
%FSLAX46Y46*%
G04 Gerber Fmt 4.6, Leading zero omitted, Abs format (unit mm)*
G04 Created by KiCad (PCBNEW 5.1.6+dfsg1-1) date 2020-09-04 14:06:56*
%MOMM*%
%LPD*%
G01*
G04 APERTURE LIST*
%ADD10C,3.600000*%
%ADD11C,1.700000*%
%ADD12R,1.600000X1.100000*%
%ADD13R,1.700000X1.700000*%
%ADD14O,1.700000X1.700000*%
%ADD15O,1.800000X1.800000*%
%ADD16R,1.800000X1.800000*%
G04 APERTURE END LIST*
D10*
%TO.C,REF\u002A\u002A*%
X147320000Y-78740000D03*
%TD*%
%TO.C,REF\u002A\u002A*%
X121412000Y-78740000D03*
%TD*%
%TO.C,REF\u002A\u002A*%
X121412000Y-106680000D03*
%TD*%
%TO.C,REF\u002A\u002A*%
X147320000Y-106680000D03*
%TD*%
D11*
%TO.C,C1*%
X141986000Y-79502000D03*
X136986000Y-79502000D03*
%TD*%
D12*
%TO.C,JP1*%
X139700000Y-100106000D03*
X139700000Y-98806000D03*
%TD*%
%TO.C,JP2*%
X139500000Y-88550000D03*
X139500000Y-89850000D03*
%TD*%
D13*
%TO.C,U1*%
X135675001Y-82825001D03*
D14*
X143295001Y-100605001D03*
X135675001Y-85365001D03*
X143295001Y-98065001D03*
X135675001Y-87905001D03*
X143295001Y-95525001D03*
X135675001Y-90445001D03*
X143295001Y-92985001D03*
X135675001Y-92985001D03*
X143295001Y-90445001D03*
X135675001Y-95525001D03*
X143295001Y-87905001D03*
X135675001Y-98065001D03*
X143295001Y-85365001D03*
X135675001Y-100605001D03*
X143295001Y-82825001D03*
%TD*%
D15*
%TO.C,J1*%
X146304000Y-98044000D03*
X146304000Y-95504000D03*
X146304000Y-92964000D03*
X146304000Y-90424000D03*
X146304000Y-87884000D03*
X146304000Y-85344000D03*
D16*
X146304000Y-82804000D03*
%TD*%
%TO.C,J2*%
X122682000Y-82804000D03*
D15*
X122682000Y-85344000D03*
X122682000Y-87884000D03*
X122682000Y-90424000D03*
X122682000Y-92964000D03*
X122682000Y-95504000D03*
X122682000Y-98044000D03*
%TD*%
D13*
%TO.C,U2*%
X133350000Y-100584000D03*
D14*
X125730000Y-80264000D03*
X133350000Y-98044000D03*
X125730000Y-82804000D03*
X133350000Y-95504000D03*
X125730000Y-85344000D03*
X133350000Y-92964000D03*
X125730000Y-87884000D03*
X133350000Y-90424000D03*
X125730000Y-90424000D03*
X133350000Y-87884000D03*
X125730000Y-92964000D03*
X133350000Y-85344000D03*
X125730000Y-95504000D03*
X133350000Y-82804000D03*
X125730000Y-98044000D03*
X133350000Y-80264000D03*
X125730000Y-100584000D03*
%TD*%
D16*
%TO.C,J3*%
X143256000Y-105410000D03*
D15*
X143256000Y-107950000D03*
X140716000Y-105410000D03*
X140716000Y-107950000D03*
X138176000Y-105410000D03*
X138176000Y-107950000D03*
X135636000Y-105410000D03*
X135636000Y-107950000D03*
X133096000Y-105410000D03*
X133096000Y-107950000D03*
X130556000Y-105410000D03*
X130556000Y-107950000D03*
X128016000Y-105410000D03*
X128016000Y-107950000D03*
X125476000Y-105410000D03*
X125476000Y-107950000D03*
%TD*%
M02*
