M48
; DRILL file {KiCad 5.1.6+dfsg1-1} date Fri Sep  4 14:06:34 2020
; FORMAT={-:-/ absolute / inch / decimal}
; #@! TF.CreationDate,2020-09-04T14:06:34-04:00
; #@! TF.GenerationSoftware,Kicad,Pcbnew,5.1.6+dfsg1-1
; #@! TF.FileFunction,Plated,1,2,PTH
FMAT,2
INCH
T1C0.0315
T2C0.0394
T3C0.0866
%
G90
G05
T1
X5.3415Y-3.2608
X5.3415Y-3.3608
X5.3415Y-3.4608
X5.3415Y-3.5608
X5.3415Y-3.6608
X5.3415Y-3.7608
X5.3415Y-3.8608
X5.3415Y-3.9608
X5.6415Y-3.2608
X5.6415Y-3.3608
X5.6415Y-3.4608
X5.6415Y-3.5608
X5.6415Y-3.6608
X5.6415Y-3.7608
X5.6415Y-3.8608
X5.6415Y-3.9608
X5.3931Y-3.13
X5.59Y-3.13
X4.95Y-3.16
X4.95Y-3.26
X4.95Y-3.36
X4.95Y-3.46
X4.95Y-3.56
X4.95Y-3.66
X4.95Y-3.76
X4.95Y-3.86
X4.95Y-3.96
X5.25Y-3.16
X5.25Y-3.26
X5.25Y-3.36
X5.25Y-3.46
X5.25Y-3.56
X5.25Y-3.66
X5.25Y-3.76
X5.25Y-3.86
X5.25Y-3.96
T2
X4.83Y-3.26
X4.83Y-3.36
X4.83Y-3.46
X4.83Y-3.56
X4.83Y-3.66
X4.83Y-3.76
X4.83Y-3.86
X4.94Y-4.15
X4.94Y-4.25
X5.04Y-4.15
X5.04Y-4.25
X5.14Y-4.15
X5.14Y-4.25
X5.24Y-4.15
X5.24Y-4.25
X5.34Y-4.15
X5.34Y-4.25
X5.44Y-4.15
X5.44Y-4.25
X5.54Y-4.15
X5.54Y-4.25
X5.64Y-4.15
X5.64Y-4.25
X5.76Y-3.26
X5.76Y-3.36
X5.76Y-3.46
X5.76Y-3.56
X5.76Y-3.66
X5.76Y-3.76
X5.76Y-3.86
T3
X5.8Y-3.1
X4.78Y-4.2
X5.8Y-4.2
X4.78Y-3.1
T0
M30
