%TF.GenerationSoftware,KiCad,Pcbnew,5.1.7+dfsg1-1*%
%TF.CreationDate,2020-10-21T16:59:47-04:00*%
%TF.ProjectId,74HC595Breakout,37344843-3539-4354-9272-65616b6f7574,rev?*%
%TF.SameCoordinates,Original*%
%TF.FileFunction,Copper,L1,Top*%
%TF.FilePolarity,Positive*%
%FSLAX46Y46*%
G04 Gerber Fmt 4.6, Leading zero omitted, Abs format (unit mm)*
G04 Created by KiCad (PCBNEW 5.1.7+dfsg1-1) date 2020-10-21 16:59:47*
%MOMM*%
%LPD*%
G01*
G04 APERTURE LIST*
%TA.AperFunction,ComponentPad*%
%ADD10R,1.600000X1.600000*%
%TD*%
%TA.AperFunction,ComponentPad*%
%ADD11O,1.600000X1.600000*%
%TD*%
%TA.AperFunction,ComponentPad*%
%ADD12C,3.500000*%
%TD*%
%TA.AperFunction,ComponentPad*%
%ADD13C,1.600000*%
%TD*%
%TA.AperFunction,ComponentPad*%
%ADD14O,1.700000X1.700000*%
%TD*%
%TA.AperFunction,ComponentPad*%
%ADD15R,1.700000X1.700000*%
%TD*%
%TA.AperFunction,Conductor*%
%ADD16C,0.250000*%
%TD*%
%TA.AperFunction,Conductor*%
%ADD17C,0.500000*%
%TD*%
%TA.AperFunction,Conductor*%
%ADD18C,1.000000*%
%TD*%
G04 APERTURE END LIST*
D10*
%TO.P,U2,1*%
%TO.N,Net-(U1-Pad15)*%
X133350000Y-100584000D03*
D11*
%TO.P,U2,10*%
%TO.N,Vdrive*%
X125730000Y-80264000D03*
%TO.P,U2,2*%
%TO.N,Net-(U1-Pad1)*%
X133350000Y-98044000D03*
%TO.P,U2,11*%
%TO.N,Net-(J3-Pad8)*%
X125730000Y-82804000D03*
%TO.P,U2,3*%
%TO.N,Net-(U1-Pad2)*%
X133350000Y-95504000D03*
%TO.P,U2,12*%
%TO.N,Net-(J3-Pad7)*%
X125730000Y-85344000D03*
%TO.P,U2,4*%
%TO.N,Net-(U1-Pad3)*%
X133350000Y-92964000D03*
%TO.P,U2,13*%
%TO.N,Net-(J3-Pad6)*%
X125730000Y-87884000D03*
%TO.P,U2,5*%
%TO.N,Net-(U1-Pad4)*%
X133350000Y-90424000D03*
%TO.P,U2,14*%
%TO.N,Net-(J3-Pad5)*%
X125730000Y-90424000D03*
%TO.P,U2,6*%
%TO.N,Net-(U1-Pad5)*%
X133350000Y-87884000D03*
%TO.P,U2,15*%
%TO.N,Net-(J3-Pad4)*%
X125730000Y-92964000D03*
%TO.P,U2,7*%
%TO.N,Net-(U1-Pad6)*%
X133350000Y-85344000D03*
%TO.P,U2,16*%
%TO.N,Net-(J3-Pad3)*%
X125730000Y-95504000D03*
%TO.P,U2,8*%
%TO.N,Net-(U1-Pad7)*%
X133350000Y-82804000D03*
%TO.P,U2,17*%
%TO.N,Net-(J3-Pad2)*%
X125730000Y-98044000D03*
%TO.P,U2,9*%
%TO.N,GND*%
X133350000Y-80264000D03*
%TO.P,U2,18*%
%TO.N,Net-(J3-Pad1)*%
X125730000Y-100584000D03*
%TD*%
D12*
%TO.P,REF\u002A\u002A,1*%
%TO.N,N/C*%
X147320000Y-77470000D03*
%TD*%
%TO.P,REF\u002A\u002A,1*%
%TO.N,N/C*%
X121412000Y-77470000D03*
%TD*%
%TO.P,REF\u002A\u002A,1*%
%TO.N,N/C*%
X121412000Y-106680000D03*
%TD*%
%TO.P,REF\u002A\u002A,1*%
%TO.N,N/C*%
X147320000Y-106680000D03*
%TD*%
D13*
%TO.P,C1,1*%
%TO.N,VCC*%
X141986000Y-79502000D03*
%TO.P,C1,2*%
%TO.N,GND*%
X136986000Y-79502000D03*
%TD*%
D10*
%TO.P,U1,1*%
%TO.N,Net-(U1-Pad1)*%
X135675001Y-82825001D03*
D11*
%TO.P,U1,9*%
%TO.N,Net-(J2-Pad3)*%
X143295001Y-100605001D03*
%TO.P,U1,2*%
%TO.N,Net-(U1-Pad2)*%
X135675001Y-85365001D03*
%TO.P,U1,10*%
%TO.N,/SRCLR*%
X143295001Y-98065001D03*
%TO.P,U1,3*%
%TO.N,Net-(U1-Pad3)*%
X135675001Y-87905001D03*
%TO.P,U1,11*%
%TO.N,Net-(J1-Pad6)*%
X143295001Y-95525001D03*
%TO.P,U1,4*%
%TO.N,Net-(U1-Pad4)*%
X135675001Y-90445001D03*
%TO.P,U1,12*%
%TO.N,Net-(J1-Pad5)*%
X143295001Y-92985001D03*
%TO.P,U1,5*%
%TO.N,Net-(U1-Pad5)*%
X135675001Y-92985001D03*
%TO.P,U1,13*%
%TO.N,/OE*%
X143295001Y-90445001D03*
%TO.P,U1,6*%
%TO.N,Net-(U1-Pad6)*%
X135675001Y-95525001D03*
%TO.P,U1,14*%
%TO.N,Net-(J1-Pad3)*%
X143295001Y-87905001D03*
%TO.P,U1,7*%
%TO.N,Net-(U1-Pad7)*%
X135675001Y-98065001D03*
%TO.P,U1,15*%
%TO.N,Net-(U1-Pad15)*%
X143295001Y-85365001D03*
%TO.P,U1,8*%
%TO.N,GND*%
X135675001Y-100605001D03*
%TO.P,U1,16*%
%TO.N,VCC*%
X143295001Y-82825001D03*
%TD*%
D14*
%TO.P,J1,7*%
%TO.N,/SRCLR*%
X146304000Y-98044000D03*
%TO.P,J1,6*%
%TO.N,Net-(J1-Pad6)*%
X146304000Y-95504000D03*
%TO.P,J1,5*%
%TO.N,Net-(J1-Pad5)*%
X146304000Y-92964000D03*
%TO.P,J1,4*%
%TO.N,/OE*%
X146304000Y-90424000D03*
%TO.P,J1,3*%
%TO.N,Net-(J1-Pad3)*%
X146304000Y-87884000D03*
%TO.P,J1,2*%
%TO.N,VCC*%
X146304000Y-85344000D03*
D15*
%TO.P,J1,1*%
%TO.N,GND*%
X146304000Y-82804000D03*
%TD*%
%TO.P,J2,1*%
%TO.N,GND*%
X122682000Y-82804000D03*
D14*
%TO.P,J2,2*%
%TO.N,VCC*%
X122682000Y-85344000D03*
%TO.P,J2,3*%
%TO.N,Net-(J2-Pad3)*%
X122682000Y-87884000D03*
%TO.P,J2,4*%
%TO.N,/OE*%
X122682000Y-90424000D03*
%TO.P,J2,5*%
%TO.N,Net-(J1-Pad5)*%
X122682000Y-92964000D03*
%TO.P,J2,6*%
%TO.N,Net-(J1-Pad6)*%
X122682000Y-95504000D03*
%TO.P,J2,7*%
%TO.N,/SRCLR*%
X122682000Y-98044000D03*
%TD*%
D15*
%TO.P,J3,1*%
%TO.N,Net-(J3-Pad1)*%
X143256000Y-105410000D03*
D14*
%TO.P,J3,9*%
%TO.N,Vdrive*%
X143256000Y-107950000D03*
%TO.P,J3,2*%
%TO.N,Net-(J3-Pad2)*%
X140716000Y-105410000D03*
%TO.P,J3,10*%
%TO.N,Vdrive*%
X140716000Y-107950000D03*
%TO.P,J3,3*%
%TO.N,Net-(J3-Pad3)*%
X138176000Y-105410000D03*
%TO.P,J3,11*%
%TO.N,Vdrive*%
X138176000Y-107950000D03*
%TO.P,J3,4*%
%TO.N,Net-(J3-Pad4)*%
X135636000Y-105410000D03*
%TO.P,J3,12*%
%TO.N,Vdrive*%
X135636000Y-107950000D03*
%TO.P,J3,5*%
%TO.N,Net-(J3-Pad5)*%
X133096000Y-105410000D03*
%TO.P,J3,13*%
%TO.N,Vdrive*%
X133096000Y-107950000D03*
%TO.P,J3,6*%
%TO.N,Net-(J3-Pad6)*%
X130556000Y-105410000D03*
%TO.P,J3,14*%
%TO.N,Vdrive*%
X130556000Y-107950000D03*
%TO.P,J3,7*%
%TO.N,Net-(J3-Pad7)*%
X128016000Y-105410000D03*
%TO.P,J3,15*%
%TO.N,Vdrive*%
X128016000Y-107950000D03*
%TO.P,J3,8*%
%TO.N,Net-(J3-Pad8)*%
X125476000Y-105410000D03*
%TO.P,J3,16*%
%TO.N,Vdrive*%
X125476000Y-107950000D03*
%TD*%
D15*
%TO.P,J4,1*%
%TO.N,GND*%
X130810000Y-76835000D03*
D14*
%TO.P,J4,2*%
%TO.N,Vdrive*%
X128270000Y-76835000D03*
%TD*%
D16*
%TO.N,VCC*%
X143785001Y-82825001D02*
X143295001Y-82825001D01*
X122682000Y-85344000D02*
X122682000Y-85089002D01*
D17*
X143295001Y-80811001D02*
X141986000Y-79502000D01*
X143295001Y-82825001D02*
X143295001Y-80811001D01*
X123982001Y-84043999D02*
X122682000Y-85344000D01*
X123982001Y-82701997D02*
X123982001Y-84043999D01*
X125129999Y-81553999D02*
X123982001Y-82701997D01*
X130209999Y-81553999D02*
X125129999Y-81553999D01*
X133511999Y-78251999D02*
X130209999Y-81553999D01*
X140735999Y-78251999D02*
X133511999Y-78251999D01*
X141986000Y-79502000D02*
X140735999Y-78251999D01*
D18*
X145814000Y-85344000D02*
X143295001Y-82825001D01*
X146304000Y-85344000D02*
X145814000Y-85344000D01*
D16*
%TO.N,GND*%
X147479001Y-83979001D02*
X146304000Y-82804000D01*
X147479001Y-98608001D02*
X147479001Y-83979001D01*
X144357000Y-101730002D02*
X147479001Y-98608001D01*
X136800002Y-101730002D02*
X144357000Y-101730002D01*
X135675001Y-100605001D02*
X136800002Y-101730002D01*
D18*
X122682000Y-81091998D02*
X122682000Y-82804000D01*
X125009999Y-78763999D02*
X122682000Y-81091998D01*
X128635003Y-78763999D02*
X125009999Y-78763999D01*
X130564002Y-76835000D02*
X128635003Y-78763999D01*
X130810000Y-76835000D02*
X130564002Y-76835000D01*
D16*
%TO.N,Net-(J1-Pad3)*%
X143316002Y-87884000D02*
X143295001Y-87905001D01*
X146304000Y-87884000D02*
X143316002Y-87884000D01*
%TO.N,/SRCLR*%
X143316002Y-98044000D02*
X143295001Y-98065001D01*
X146304000Y-98044000D02*
X143316002Y-98044000D01*
%TO.N,Net-(J1-Pad6)*%
X143316002Y-95504000D02*
X143295001Y-95525001D01*
X146304000Y-95504000D02*
X143316002Y-95504000D01*
%TO.N,/OE*%
X143316002Y-90424000D02*
X143295001Y-90445001D01*
X146304000Y-90424000D02*
X143316002Y-90424000D01*
%TO.N,Net-(J1-Pad5)*%
X143316002Y-92964000D02*
X143295001Y-92985001D01*
X146304000Y-92964000D02*
X143316002Y-92964000D01*
%TO.N,Net-(J3-Pad8)*%
X121056988Y-87770010D02*
X121056988Y-91577189D01*
X120156966Y-99582966D02*
X125476000Y-104902000D01*
X121056988Y-91577189D02*
X120156966Y-92477210D01*
X124604999Y-83929001D02*
X124604999Y-85160003D01*
X125730000Y-82804000D02*
X124604999Y-83929001D01*
X124604999Y-85160003D02*
X123056003Y-86708999D01*
X123056003Y-86708999D02*
X122117999Y-86708999D01*
X122117999Y-86708999D02*
X121056988Y-87770010D01*
X120156966Y-92477210D02*
X120156966Y-99582966D01*
%TO.N,Net-(J3-Pad7)*%
X122117999Y-89248999D02*
X121506999Y-89859999D01*
X123603001Y-89248999D02*
X122117999Y-89248999D01*
X121506999Y-89859999D02*
X121506999Y-91763589D01*
X121506999Y-91763589D02*
X120606977Y-92663610D01*
X126707002Y-104902000D02*
X128016000Y-104902000D01*
X120606977Y-92663610D02*
X120606977Y-99273799D01*
X124604999Y-86469001D02*
X124604999Y-88247001D01*
X124604999Y-88247001D02*
X123603001Y-89248999D01*
X125730000Y-85344000D02*
X124604999Y-86469001D01*
X120606977Y-99273799D02*
X125568177Y-104234999D01*
X125568177Y-104234999D02*
X126040001Y-104234999D01*
X126040001Y-104234999D02*
X126707002Y-104902000D01*
%TO.N,Net-(J3-Pad6)*%
X124604999Y-90240003D02*
X123056003Y-91788999D01*
X121056988Y-99087399D02*
X125754577Y-103784988D01*
X126465435Y-104024022D02*
X129678022Y-104024022D01*
X122117999Y-91788999D02*
X121056988Y-92850010D01*
X125754577Y-103784988D02*
X126226401Y-103784988D01*
X125730000Y-87884000D02*
X124604999Y-89009001D01*
X121056988Y-92850010D02*
X121056988Y-99087399D01*
X124604999Y-89009001D02*
X124604999Y-90240003D01*
X129678022Y-104024022D02*
X130556000Y-104902000D01*
X126226401Y-103784988D02*
X126465435Y-104024022D01*
X123056003Y-91788999D02*
X122117999Y-91788999D01*
%TO.N,Net-(J3-Pad5)*%
X125940977Y-103334977D02*
X126412801Y-103334977D01*
X132428999Y-104234999D02*
X133096000Y-104902000D01*
X125730000Y-90424000D02*
X123857001Y-92296999D01*
X123857001Y-92296999D02*
X123857001Y-93528001D01*
X121506999Y-94939999D02*
X121506999Y-98900999D01*
X123857001Y-93528001D02*
X123056003Y-94328999D01*
X122117999Y-94328999D02*
X121506999Y-94939999D01*
X126412801Y-103334977D02*
X126651835Y-103574011D01*
X130902177Y-104234999D02*
X132428999Y-104234999D01*
X130241189Y-103574011D02*
X130902177Y-104234999D01*
X123056003Y-94328999D02*
X122117999Y-94328999D01*
X126651835Y-103574011D02*
X130241189Y-103574011D01*
X121506999Y-98900999D02*
X125940977Y-103334977D01*
%TO.N,Net-(J3-Pad4)*%
X135636000Y-104902000D02*
X135482998Y-104902000D01*
X125479997Y-99458999D02*
X127398999Y-99458999D01*
X124154988Y-98133990D02*
X125479997Y-99458999D01*
X124154988Y-94539012D02*
X124154988Y-98133990D01*
X125730000Y-92964000D02*
X124154988Y-94539012D01*
X133560977Y-103334977D02*
X135636000Y-105410000D01*
X131274977Y-103334977D02*
X133560977Y-103334977D01*
X127398999Y-99458999D02*
X131274977Y-103334977D01*
%TO.N,Net-(J3-Pad3)*%
X131774988Y-101548988D02*
X131774988Y-101830401D01*
X125730000Y-95504000D02*
X131774988Y-101548988D01*
X134925012Y-102159012D02*
X138176000Y-105410000D01*
X132103599Y-102159012D02*
X134925012Y-102159012D01*
X131774988Y-101830401D02*
X132103599Y-102159012D01*
%TO.N,Net-(J3-Pad2)*%
X142145999Y-106585001D02*
X140716000Y-105155002D01*
X132224999Y-100333997D02*
X132224999Y-101644001D01*
X126270001Y-94378999D02*
X132224999Y-100333997D01*
X135111412Y-101709001D02*
X136272409Y-102869999D01*
X124604999Y-96918999D02*
X124604999Y-94963999D01*
X132224999Y-101644001D02*
X132289999Y-101709001D01*
X144431001Y-103791999D02*
X144431001Y-106520001D01*
X144431001Y-106520001D02*
X144366001Y-106585001D01*
X136272409Y-102869999D02*
X143509001Y-102869999D01*
X143509001Y-102869999D02*
X144431001Y-103791999D01*
X125189999Y-94378999D02*
X126270001Y-94378999D01*
X144366001Y-106585001D02*
X142145999Y-106585001D01*
X132289999Y-101709001D02*
X135111412Y-101709001D01*
X124604999Y-94963999D02*
X125189999Y-94378999D01*
X125730000Y-98044000D02*
X124604999Y-96918999D01*
X140716000Y-105155002D02*
X140716000Y-104902000D01*
%TO.N,Net-(J3-Pad1)*%
X125730000Y-100584000D02*
X127887589Y-100584000D01*
X142436009Y-104082009D02*
X143256000Y-104902000D01*
X140114991Y-104082009D02*
X142436009Y-104082009D01*
X138740001Y-106585001D02*
X139351001Y-105974001D01*
X139351001Y-105974001D02*
X139351001Y-104845999D01*
X134460999Y-104871409D02*
X134460999Y-105974001D01*
X134460999Y-105974001D02*
X135071999Y-106585001D01*
X139351001Y-104845999D02*
X140114991Y-104082009D01*
X133374578Y-103784988D02*
X134460999Y-104871409D01*
X131088577Y-103784988D02*
X133374578Y-103784988D01*
X135071999Y-106585001D02*
X138740001Y-106585001D01*
X127887589Y-100584000D02*
X131088577Y-103784988D01*
%TO.N,Net-(U1-Pad1)*%
X132809999Y-81678999D02*
X134528999Y-81678999D01*
X131324980Y-83164018D02*
X132809999Y-81678999D01*
X131324980Y-96018980D02*
X131324980Y-83164018D01*
X134528999Y-81678999D02*
X135675001Y-82825001D01*
X133350000Y-98044000D02*
X131324980Y-96018980D01*
%TO.N,Net-(U1-Pad2)*%
X134454000Y-94400000D02*
X133350000Y-95504000D01*
X135925004Y-94400000D02*
X134454000Y-94400000D01*
X137250012Y-93074992D02*
X135925004Y-94400000D01*
X137250012Y-87815011D02*
X137250012Y-93074992D01*
X136215002Y-86780000D02*
X137250012Y-87815011D01*
X135135000Y-86780000D02*
X136215002Y-86780000D01*
X134875002Y-86520002D02*
X135135000Y-86780000D01*
X134875002Y-86165000D02*
X134875002Y-86520002D01*
X135675001Y-85365001D02*
X134875002Y-86165000D01*
%TO.N,Net-(U1-Pad3)*%
X134743998Y-91570002D02*
X133350000Y-92964000D01*
X136215002Y-91570002D02*
X134743998Y-91570002D01*
X136800002Y-90985002D02*
X136215002Y-91570002D01*
X136800002Y-89030002D02*
X136800002Y-90985002D01*
X135675001Y-87905001D02*
X136800002Y-89030002D01*
%TO.N,Net-(U1-Pad4)*%
X133371001Y-90445001D02*
X133350000Y-90424000D01*
X135675001Y-90445001D02*
X133371001Y-90445001D01*
%TO.N,Net-(U1-Pad5)*%
X134128588Y-94089001D02*
X135232588Y-92985001D01*
X132809999Y-94089001D02*
X134128588Y-94089001D01*
X133350000Y-87884000D02*
X132224999Y-89009001D01*
X132224999Y-93504001D02*
X132809999Y-94089001D01*
X135232588Y-92985001D02*
X135675001Y-92985001D01*
X132224999Y-89009001D02*
X132224999Y-93504001D01*
%TO.N,Net-(U1-Pad6)*%
X134571001Y-96629001D02*
X135675001Y-95525001D01*
X132809999Y-96629001D02*
X134571001Y-96629001D01*
X131774988Y-95593990D02*
X132809999Y-96629001D01*
X131774988Y-86919012D02*
X131774988Y-95593990D01*
X133350000Y-85344000D02*
X131774988Y-86919012D01*
%TO.N,Net-(U1-Pad7)*%
X134496002Y-83950002D02*
X133350000Y-82804000D01*
X135925004Y-83950002D02*
X134496002Y-83950002D01*
X137700021Y-85725019D02*
X135925004Y-83950002D01*
X137700021Y-96039981D02*
X137700021Y-85725019D01*
X135675001Y-98065001D02*
X137700021Y-96039981D01*
%TO.N,Net-(U1-Pad15)*%
X135925004Y-99480000D02*
X134454000Y-99480000D01*
X143295001Y-85365001D02*
X142170000Y-86490002D01*
X142170000Y-93235004D02*
X135925004Y-99480000D01*
X142170000Y-86490002D02*
X142170000Y-93235004D01*
X134454000Y-99480000D02*
X133350000Y-100584000D01*
%TD*%
M02*
