%TF.GenerationSoftware,KiCad,Pcbnew,5.1.6+dfsg1-1*%
%TF.CreationDate,2020-09-04T14:06:56-04:00*%
%TF.ProjectId,74HC595Breakout,37344843-3539-4354-9272-65616b6f7574,rev?*%
%TF.SameCoordinates,Original*%
%TF.FileFunction,Legend,Bot*%
%TF.FilePolarity,Positive*%
%FSLAX46Y46*%
G04 Gerber Fmt 4.6, Leading zero omitted, Abs format (unit mm)*
G04 Created by KiCad (PCBNEW 5.1.6+dfsg1-1) date 2020-09-04 14:06:56*
%MOMM*%
%LPD*%
G01*
G04 APERTURE LIST*
%ADD10C,0.120000*%
%ADD11C,0.150000*%
G04 APERTURE END LIST*
D10*
%TO.C,JP1*%
X138700000Y-100856000D02*
X140700000Y-100856000D01*
X138700000Y-98056000D02*
X138700000Y-100856000D01*
X140700000Y-98056000D02*
X138700000Y-98056000D01*
X140700000Y-100856000D02*
X140700000Y-98056000D01*
%TO.C,JP2*%
X140500000Y-90600000D02*
X140500000Y-87800000D01*
X140500000Y-87800000D02*
X138500000Y-87800000D01*
X138500000Y-87800000D02*
X138500000Y-90600000D01*
X138500000Y-90600000D02*
X140500000Y-90600000D01*
%TO.C,JP1*%
D11*
X140952380Y-98622666D02*
X141666666Y-98622666D01*
X141809523Y-98575047D01*
X141904761Y-98479809D01*
X141952380Y-98336952D01*
X141952380Y-98241714D01*
X141952380Y-99098857D02*
X140952380Y-99098857D01*
X140952380Y-99479809D01*
X141000000Y-99575047D01*
X141047619Y-99622666D01*
X141142857Y-99670285D01*
X141285714Y-99670285D01*
X141380952Y-99622666D01*
X141428571Y-99575047D01*
X141476190Y-99479809D01*
X141476190Y-99098857D01*
X141952380Y-100622666D02*
X141952380Y-100051238D01*
X141952380Y-100336952D02*
X140952380Y-100336952D01*
X141095238Y-100241714D01*
X141190476Y-100146476D01*
X141238095Y-100051238D01*
%TO.C,JP2*%
X137152380Y-88466666D02*
X137866666Y-88466666D01*
X138009523Y-88419047D01*
X138104761Y-88323809D01*
X138152380Y-88180952D01*
X138152380Y-88085714D01*
X138152380Y-88942857D02*
X137152380Y-88942857D01*
X137152380Y-89323809D01*
X137200000Y-89419047D01*
X137247619Y-89466666D01*
X137342857Y-89514285D01*
X137485714Y-89514285D01*
X137580952Y-89466666D01*
X137628571Y-89419047D01*
X137676190Y-89323809D01*
X137676190Y-88942857D01*
X137247619Y-89895238D02*
X137200000Y-89942857D01*
X137152380Y-90038095D01*
X137152380Y-90276190D01*
X137200000Y-90371428D01*
X137247619Y-90419047D01*
X137342857Y-90466666D01*
X137438095Y-90466666D01*
X137580952Y-90419047D01*
X138152380Y-89847619D01*
X138152380Y-90466666D01*
%TD*%
M02*
