%TF.GenerationSoftware,KiCad,Pcbnew,5.1.7+dfsg1-1*%
%TF.CreationDate,2020-10-21T16:59:47-04:00*%
%TF.ProjectId,74HC595Breakout,37344843-3539-4354-9272-65616b6f7574,rev?*%
%TF.SameCoordinates,Original*%
%TF.FileFunction,Legend,Top*%
%TF.FilePolarity,Positive*%
%FSLAX46Y46*%
G04 Gerber Fmt 4.6, Leading zero omitted, Abs format (unit mm)*
G04 Created by KiCad (PCBNEW 5.1.7+dfsg1-1) date 2020-10-21 16:59:47*
%MOMM*%
%LPD*%
G01*
G04 APERTURE LIST*
%ADD10C,0.150000*%
%ADD11C,0.120000*%
G04 APERTURE END LIST*
D10*
X141065523Y-108926380D02*
X141398857Y-109926380D01*
X141732190Y-108926380D01*
X142065523Y-109926380D02*
X142065523Y-108926380D01*
X142303619Y-108926380D01*
X142446476Y-108974000D01*
X142541714Y-109069238D01*
X142589333Y-109164476D01*
X142636952Y-109354952D01*
X142636952Y-109497809D01*
X142589333Y-109688285D01*
X142541714Y-109783523D01*
X142446476Y-109878761D01*
X142303619Y-109926380D01*
X142065523Y-109926380D01*
X143065523Y-109926380D02*
X143065523Y-109259714D01*
X143065523Y-109450190D02*
X143113142Y-109354952D01*
X143160761Y-109307333D01*
X143256000Y-109259714D01*
X143351238Y-109259714D01*
X143684571Y-109926380D02*
X143684571Y-109259714D01*
X143684571Y-108926380D02*
X143636952Y-108974000D01*
X143684571Y-109021619D01*
X143732190Y-108974000D01*
X143684571Y-108926380D01*
X143684571Y-109021619D01*
X144065523Y-109259714D02*
X144303619Y-109926380D01*
X144541714Y-109259714D01*
X145303619Y-109878761D02*
X145208380Y-109926380D01*
X145017904Y-109926380D01*
X144922666Y-109878761D01*
X144875047Y-109783523D01*
X144875047Y-109402571D01*
X144922666Y-109307333D01*
X145017904Y-109259714D01*
X145208380Y-109259714D01*
X145303619Y-109307333D01*
X145351238Y-109402571D01*
X145351238Y-109497809D01*
X144875047Y-109593047D01*
X123285523Y-108926380D02*
X123618857Y-109926380D01*
X123952190Y-108926380D01*
X124285523Y-109926380D02*
X124285523Y-108926380D01*
X124523619Y-108926380D01*
X124666476Y-108974000D01*
X124761714Y-109069238D01*
X124809333Y-109164476D01*
X124856952Y-109354952D01*
X124856952Y-109497809D01*
X124809333Y-109688285D01*
X124761714Y-109783523D01*
X124666476Y-109878761D01*
X124523619Y-109926380D01*
X124285523Y-109926380D01*
X125285523Y-109926380D02*
X125285523Y-109259714D01*
X125285523Y-109450190D02*
X125333142Y-109354952D01*
X125380761Y-109307333D01*
X125476000Y-109259714D01*
X125571238Y-109259714D01*
X125904571Y-109926380D02*
X125904571Y-109259714D01*
X125904571Y-108926380D02*
X125856952Y-108974000D01*
X125904571Y-109021619D01*
X125952190Y-108974000D01*
X125904571Y-108926380D01*
X125904571Y-109021619D01*
X126285523Y-109259714D02*
X126523619Y-109926380D01*
X126761714Y-109259714D01*
X127523619Y-109878761D02*
X127428380Y-109926380D01*
X127237904Y-109926380D01*
X127142666Y-109878761D01*
X127095047Y-109783523D01*
X127095047Y-109402571D01*
X127142666Y-109307333D01*
X127237904Y-109259714D01*
X127428380Y-109259714D01*
X127523619Y-109307333D01*
X127571238Y-109402571D01*
X127571238Y-109497809D01*
X127095047Y-109593047D01*
X125380761Y-103004952D02*
X125285523Y-102957333D01*
X125237904Y-102909714D01*
X125190285Y-102814476D01*
X125190285Y-102766857D01*
X125237904Y-102671619D01*
X125285523Y-102624000D01*
X125380761Y-102576380D01*
X125571238Y-102576380D01*
X125666476Y-102624000D01*
X125714095Y-102671619D01*
X125761714Y-102766857D01*
X125761714Y-102814476D01*
X125714095Y-102909714D01*
X125666476Y-102957333D01*
X125571238Y-103004952D01*
X125380761Y-103004952D01*
X125285523Y-103052571D01*
X125237904Y-103100190D01*
X125190285Y-103195428D01*
X125190285Y-103385904D01*
X125237904Y-103481142D01*
X125285523Y-103528761D01*
X125380761Y-103576380D01*
X125571238Y-103576380D01*
X125666476Y-103528761D01*
X125714095Y-103481142D01*
X125761714Y-103385904D01*
X125761714Y-103195428D01*
X125714095Y-103100190D01*
X125666476Y-103052571D01*
X125571238Y-103004952D01*
X127682666Y-102576380D02*
X128349333Y-102576380D01*
X127920761Y-103576380D01*
X130746476Y-102576380D02*
X130556000Y-102576380D01*
X130460761Y-102624000D01*
X130413142Y-102671619D01*
X130317904Y-102814476D01*
X130270285Y-103004952D01*
X130270285Y-103385904D01*
X130317904Y-103481142D01*
X130365523Y-103528761D01*
X130460761Y-103576380D01*
X130651238Y-103576380D01*
X130746476Y-103528761D01*
X130794095Y-103481142D01*
X130841714Y-103385904D01*
X130841714Y-103147809D01*
X130794095Y-103052571D01*
X130746476Y-103004952D01*
X130651238Y-102957333D01*
X130460761Y-102957333D01*
X130365523Y-103004952D01*
X130317904Y-103052571D01*
X130270285Y-103147809D01*
X133334095Y-102576380D02*
X132857904Y-102576380D01*
X132810285Y-103052571D01*
X132857904Y-103004952D01*
X132953142Y-102957333D01*
X133191238Y-102957333D01*
X133286476Y-103004952D01*
X133334095Y-103052571D01*
X133381714Y-103147809D01*
X133381714Y-103385904D01*
X133334095Y-103481142D01*
X133286476Y-103528761D01*
X133191238Y-103576380D01*
X132953142Y-103576380D01*
X132857904Y-103528761D01*
X132810285Y-103481142D01*
X135826476Y-102655714D02*
X135826476Y-103322380D01*
X135588380Y-102274761D02*
X135350285Y-102989047D01*
X135969333Y-102989047D01*
X137842666Y-102576380D02*
X138461714Y-102576380D01*
X138128380Y-102957333D01*
X138271238Y-102957333D01*
X138366476Y-103004952D01*
X138414095Y-103052571D01*
X138461714Y-103147809D01*
X138461714Y-103385904D01*
X138414095Y-103481142D01*
X138366476Y-103528761D01*
X138271238Y-103576380D01*
X137985523Y-103576380D01*
X137890285Y-103528761D01*
X137842666Y-103481142D01*
X140430285Y-102671619D02*
X140477904Y-102624000D01*
X140573142Y-102576380D01*
X140811238Y-102576380D01*
X140906476Y-102624000D01*
X140954095Y-102671619D01*
X141001714Y-102766857D01*
X141001714Y-102862095D01*
X140954095Y-103004952D01*
X140382666Y-103576380D01*
X141001714Y-103576380D01*
X143541714Y-103576380D02*
X142970285Y-103576380D01*
X143256000Y-103576380D02*
X143256000Y-102576380D01*
X143160761Y-102719238D01*
X143065523Y-102814476D01*
X142970285Y-102862095D01*
X120594380Y-95329238D02*
X120118190Y-95662571D01*
X120594380Y-95900666D02*
X119594380Y-95900666D01*
X119594380Y-95519714D01*
X119642000Y-95424476D01*
X119689619Y-95376857D01*
X119784857Y-95329238D01*
X119927714Y-95329238D01*
X120022952Y-95376857D01*
X120070571Y-95424476D01*
X120118190Y-95519714D01*
X120118190Y-95900666D01*
X120499142Y-94329238D02*
X120546761Y-94376857D01*
X120594380Y-94519714D01*
X120594380Y-94614952D01*
X120546761Y-94757809D01*
X120451523Y-94853047D01*
X120356285Y-94900666D01*
X120165809Y-94948285D01*
X120022952Y-94948285D01*
X119832476Y-94900666D01*
X119737238Y-94853047D01*
X119642000Y-94757809D01*
X119594380Y-94614952D01*
X119594380Y-94519714D01*
X119642000Y-94376857D01*
X119689619Y-94329238D01*
X120594380Y-93424476D02*
X120594380Y-93900666D01*
X119594380Y-93900666D01*
X120594380Y-93091142D02*
X119594380Y-93091142D01*
X120594380Y-92519714D02*
X120022952Y-92948285D01*
X119594380Y-92519714D02*
X120165809Y-93091142D01*
X119729523Y-102004761D02*
X119872380Y-102052380D01*
X120110476Y-102052380D01*
X120205714Y-102004761D01*
X120253333Y-101957142D01*
X120300952Y-101861904D01*
X120300952Y-101766666D01*
X120253333Y-101671428D01*
X120205714Y-101623809D01*
X120110476Y-101576190D01*
X119920000Y-101528571D01*
X119824761Y-101480952D01*
X119777142Y-101433333D01*
X119729523Y-101338095D01*
X119729523Y-101242857D01*
X119777142Y-101147619D01*
X119824761Y-101100000D01*
X119920000Y-101052380D01*
X120158095Y-101052380D01*
X120300952Y-101100000D01*
X121300952Y-102052380D02*
X120967619Y-101576190D01*
X120729523Y-102052380D02*
X120729523Y-101052380D01*
X121110476Y-101052380D01*
X121205714Y-101100000D01*
X121253333Y-101147619D01*
X121300952Y-101242857D01*
X121300952Y-101385714D01*
X121253333Y-101480952D01*
X121205714Y-101528571D01*
X121110476Y-101576190D01*
X120729523Y-101576190D01*
X122300952Y-101957142D02*
X122253333Y-102004761D01*
X122110476Y-102052380D01*
X122015238Y-102052380D01*
X121872380Y-102004761D01*
X121777142Y-101909523D01*
X121729523Y-101814285D01*
X121681904Y-101623809D01*
X121681904Y-101480952D01*
X121729523Y-101290476D01*
X121777142Y-101195238D01*
X121872380Y-101100000D01*
X122015238Y-101052380D01*
X122110476Y-101052380D01*
X122253333Y-101100000D01*
X122300952Y-101147619D01*
X123205714Y-102052380D02*
X122729523Y-102052380D01*
X122729523Y-101052380D01*
X124110476Y-102052380D02*
X123777142Y-101576190D01*
X123539047Y-102052380D02*
X123539047Y-101052380D01*
X123920000Y-101052380D01*
X124015238Y-101100000D01*
X124062857Y-101147619D01*
X124110476Y-101242857D01*
X124110476Y-101385714D01*
X124062857Y-101480952D01*
X124015238Y-101528571D01*
X123920000Y-101576190D01*
X123539047Y-101576190D01*
X120546761Y-100742476D02*
X120594380Y-100599619D01*
X120594380Y-100361523D01*
X120546761Y-100266285D01*
X120499142Y-100218666D01*
X120403904Y-100171047D01*
X120308666Y-100171047D01*
X120213428Y-100218666D01*
X120165809Y-100266285D01*
X120118190Y-100361523D01*
X120070571Y-100552000D01*
X120022952Y-100647238D01*
X119975333Y-100694857D01*
X119880095Y-100742476D01*
X119784857Y-100742476D01*
X119689619Y-100694857D01*
X119642000Y-100647238D01*
X119594380Y-100552000D01*
X119594380Y-100313904D01*
X119642000Y-100171047D01*
X120594380Y-99171047D02*
X120118190Y-99504380D01*
X120594380Y-99742476D02*
X119594380Y-99742476D01*
X119594380Y-99361523D01*
X119642000Y-99266285D01*
X119689619Y-99218666D01*
X119784857Y-99171047D01*
X119927714Y-99171047D01*
X120022952Y-99218666D01*
X120070571Y-99266285D01*
X120118190Y-99361523D01*
X120118190Y-99742476D01*
X120499142Y-98171047D02*
X120546761Y-98218666D01*
X120594380Y-98361523D01*
X120594380Y-98456761D01*
X120546761Y-98599619D01*
X120451523Y-98694857D01*
X120356285Y-98742476D01*
X120165809Y-98790095D01*
X120022952Y-98790095D01*
X119832476Y-98742476D01*
X119737238Y-98694857D01*
X119642000Y-98599619D01*
X119594380Y-98456761D01*
X119594380Y-98361523D01*
X119642000Y-98218666D01*
X119689619Y-98171047D01*
X120594380Y-97266285D02*
X120594380Y-97742476D01*
X119594380Y-97742476D01*
X120594380Y-96932952D02*
X119594380Y-96932952D01*
X120594380Y-96361523D02*
X120022952Y-96790095D01*
X119594380Y-96361523D02*
X120165809Y-96932952D01*
X119594380Y-87439333D02*
X120594380Y-87106000D01*
X119594380Y-86772666D01*
X120499142Y-85867904D02*
X120546761Y-85915523D01*
X120594380Y-86058380D01*
X120594380Y-86153619D01*
X120546761Y-86296476D01*
X120451523Y-86391714D01*
X120356285Y-86439333D01*
X120165809Y-86486952D01*
X120022952Y-86486952D01*
X119832476Y-86439333D01*
X119737238Y-86391714D01*
X119642000Y-86296476D01*
X119594380Y-86153619D01*
X119594380Y-86058380D01*
X119642000Y-85915523D01*
X119689619Y-85867904D01*
X120499142Y-84867904D02*
X120546761Y-84915523D01*
X120594380Y-85058380D01*
X120594380Y-85153619D01*
X120546761Y-85296476D01*
X120451523Y-85391714D01*
X120356285Y-85439333D01*
X120165809Y-85486952D01*
X120022952Y-85486952D01*
X119832476Y-85439333D01*
X119737238Y-85391714D01*
X119642000Y-85296476D01*
X119594380Y-85153619D01*
X119594380Y-85058380D01*
X119642000Y-84915523D01*
X119689619Y-84867904D01*
X119642000Y-83565904D02*
X119594380Y-83661142D01*
X119594380Y-83804000D01*
X119642000Y-83946857D01*
X119737238Y-84042095D01*
X119832476Y-84089714D01*
X120022952Y-84137333D01*
X120165809Y-84137333D01*
X120356285Y-84089714D01*
X120451523Y-84042095D01*
X120546761Y-83946857D01*
X120594380Y-83804000D01*
X120594380Y-83708761D01*
X120546761Y-83565904D01*
X120499142Y-83518285D01*
X120165809Y-83518285D01*
X120165809Y-83708761D01*
X120594380Y-83089714D02*
X119594380Y-83089714D01*
X120594380Y-82518285D01*
X119594380Y-82518285D01*
X120594380Y-82042095D02*
X119594380Y-82042095D01*
X119594380Y-81804000D01*
X119642000Y-81661142D01*
X119737238Y-81565904D01*
X119832476Y-81518285D01*
X120022952Y-81470666D01*
X120165809Y-81470666D01*
X120356285Y-81518285D01*
X120451523Y-81565904D01*
X120546761Y-81661142D01*
X120594380Y-81804000D01*
X120594380Y-82042095D01*
X119594380Y-91479619D02*
X119594380Y-91289142D01*
X119642000Y-91193904D01*
X119737238Y-91098666D01*
X119927714Y-91051047D01*
X120261047Y-91051047D01*
X120451523Y-91098666D01*
X120546761Y-91193904D01*
X120594380Y-91289142D01*
X120594380Y-91479619D01*
X120546761Y-91574857D01*
X120451523Y-91670095D01*
X120261047Y-91717714D01*
X119927714Y-91717714D01*
X119737238Y-91670095D01*
X119642000Y-91574857D01*
X119594380Y-91479619D01*
X120070571Y-90622476D02*
X120070571Y-90289142D01*
X120594380Y-90146285D02*
X120594380Y-90622476D01*
X119594380Y-90622476D01*
X119594380Y-90146285D01*
X120594380Y-89384095D02*
X119594380Y-89384095D01*
X119594380Y-89146000D01*
X119642000Y-89003142D01*
X119737238Y-88907904D01*
X119832476Y-88860285D01*
X120022952Y-88812666D01*
X120165809Y-88812666D01*
X120356285Y-88860285D01*
X120451523Y-88907904D01*
X120546761Y-89003142D01*
X120594380Y-89146000D01*
X120594380Y-89384095D01*
X120546761Y-88431714D02*
X120594380Y-88288857D01*
X120594380Y-88050761D01*
X120546761Y-87955523D01*
X120499142Y-87907904D01*
X120403904Y-87860285D01*
X120308666Y-87860285D01*
X120213428Y-87907904D01*
X120165809Y-87955523D01*
X120118190Y-88050761D01*
X120070571Y-88241238D01*
X120022952Y-88336476D01*
X119975333Y-88384095D01*
X119880095Y-88431714D01*
X119784857Y-88431714D01*
X119689619Y-88384095D01*
X119642000Y-88336476D01*
X119594380Y-88241238D01*
X119594380Y-88003142D01*
X119642000Y-87860285D01*
X132668000Y-76414380D02*
X133001333Y-77414380D01*
X133334666Y-76414380D01*
X133668000Y-77414380D02*
X133668000Y-76414380D01*
X133906095Y-76414380D01*
X134048952Y-76462000D01*
X134144190Y-76557238D01*
X134191809Y-76652476D01*
X134239428Y-76842952D01*
X134239428Y-76985809D01*
X134191809Y-77176285D01*
X134144190Y-77271523D01*
X134048952Y-77366761D01*
X133906095Y-77414380D01*
X133668000Y-77414380D01*
X134668000Y-77414380D02*
X134668000Y-76747714D01*
X134668000Y-76938190D02*
X134715619Y-76842952D01*
X134763238Y-76795333D01*
X134858476Y-76747714D01*
X134953714Y-76747714D01*
X135287047Y-77414380D02*
X135287047Y-76747714D01*
X135287047Y-76414380D02*
X135239428Y-76462000D01*
X135287047Y-76509619D01*
X135334666Y-76462000D01*
X135287047Y-76414380D01*
X135287047Y-76509619D01*
X135668000Y-76747714D02*
X135906095Y-77414380D01*
X136144190Y-76747714D01*
X136906095Y-77366761D02*
X136810857Y-77414380D01*
X136620380Y-77414380D01*
X136525142Y-77366761D01*
X136477523Y-77271523D01*
X136477523Y-76890571D01*
X136525142Y-76795333D01*
X136620380Y-76747714D01*
X136810857Y-76747714D01*
X136906095Y-76795333D01*
X136953714Y-76890571D01*
X136953714Y-76985809D01*
X136477523Y-77081047D01*
X138858476Y-76366761D02*
X138001333Y-77652476D01*
X140477523Y-76462000D02*
X140382285Y-76414380D01*
X140239428Y-76414380D01*
X140096571Y-76462000D01*
X140001333Y-76557238D01*
X139953714Y-76652476D01*
X139906095Y-76842952D01*
X139906095Y-76985809D01*
X139953714Y-77176285D01*
X140001333Y-77271523D01*
X140096571Y-77366761D01*
X140239428Y-77414380D01*
X140334666Y-77414380D01*
X140477523Y-77366761D01*
X140525142Y-77319142D01*
X140525142Y-76985809D01*
X140334666Y-76985809D01*
X140953714Y-77414380D02*
X140953714Y-76414380D01*
X141525142Y-77414380D01*
X141525142Y-76414380D01*
X142001333Y-77414380D02*
X142001333Y-76414380D01*
X142239428Y-76414380D01*
X142382285Y-76462000D01*
X142477523Y-76557238D01*
X142525142Y-76652476D01*
X142572761Y-76842952D01*
X142572761Y-76985809D01*
X142525142Y-77176285D01*
X142477523Y-77271523D01*
X142382285Y-77366761D01*
X142239428Y-77414380D01*
X142001333Y-77414380D01*
X120150190Y-79970380D02*
X120340666Y-79970380D01*
X120435904Y-80018000D01*
X120531142Y-80113238D01*
X120578761Y-80303714D01*
X120578761Y-80637047D01*
X120531142Y-80827523D01*
X120435904Y-80922761D01*
X120340666Y-80970380D01*
X120150190Y-80970380D01*
X120054952Y-80922761D01*
X119959714Y-80827523D01*
X119912095Y-80637047D01*
X119912095Y-80303714D01*
X119959714Y-80113238D01*
X120054952Y-80018000D01*
X120150190Y-79970380D01*
X121435904Y-80303714D02*
X121435904Y-80970380D01*
X121007333Y-80303714D02*
X121007333Y-80827523D01*
X121054952Y-80922761D01*
X121150190Y-80970380D01*
X121293047Y-80970380D01*
X121388285Y-80922761D01*
X121435904Y-80875142D01*
X121769238Y-80303714D02*
X122150190Y-80303714D01*
X121912095Y-79970380D02*
X121912095Y-80827523D01*
X121959714Y-80922761D01*
X122054952Y-80970380D01*
X122150190Y-80970380D01*
X122483523Y-80303714D02*
X122483523Y-81303714D01*
X122483523Y-80351333D02*
X122578761Y-80303714D01*
X122769238Y-80303714D01*
X122864476Y-80351333D01*
X122912095Y-80398952D01*
X122959714Y-80494190D01*
X122959714Y-80779904D01*
X122912095Y-80875142D01*
X122864476Y-80922761D01*
X122769238Y-80970380D01*
X122578761Y-80970380D01*
X122483523Y-80922761D01*
X123816857Y-80303714D02*
X123816857Y-80970380D01*
X123388285Y-80303714D02*
X123388285Y-80827523D01*
X123435904Y-80922761D01*
X123531142Y-80970380D01*
X123674000Y-80970380D01*
X123769238Y-80922761D01*
X123816857Y-80875142D01*
X124150190Y-80303714D02*
X124531142Y-80303714D01*
X124293047Y-79970380D02*
X124293047Y-80827523D01*
X124340666Y-80922761D01*
X124435904Y-80970380D01*
X124531142Y-80970380D01*
X144661142Y-80970380D02*
X144661142Y-79970380D01*
X145137333Y-80303714D02*
X145137333Y-80970380D01*
X145137333Y-80398952D02*
X145184952Y-80351333D01*
X145280190Y-80303714D01*
X145423047Y-80303714D01*
X145518285Y-80351333D01*
X145565904Y-80446571D01*
X145565904Y-80970380D01*
X146042095Y-80303714D02*
X146042095Y-81303714D01*
X146042095Y-80351333D02*
X146137333Y-80303714D01*
X146327809Y-80303714D01*
X146423047Y-80351333D01*
X146470666Y-80398952D01*
X146518285Y-80494190D01*
X146518285Y-80779904D01*
X146470666Y-80875142D01*
X146423047Y-80922761D01*
X146327809Y-80970380D01*
X146137333Y-80970380D01*
X146042095Y-80922761D01*
X147375428Y-80303714D02*
X147375428Y-80970380D01*
X146946857Y-80303714D02*
X146946857Y-80827523D01*
X146994476Y-80922761D01*
X147089714Y-80970380D01*
X147232571Y-80970380D01*
X147327809Y-80922761D01*
X147375428Y-80875142D01*
X147708761Y-80303714D02*
X148089714Y-80303714D01*
X147851619Y-79970380D02*
X147851619Y-80827523D01*
X147899238Y-80922761D01*
X147994476Y-80970380D01*
X148089714Y-80970380D01*
X149248761Y-99980476D02*
X149296380Y-99837619D01*
X149296380Y-99599523D01*
X149248761Y-99504285D01*
X149201142Y-99456666D01*
X149105904Y-99409047D01*
X149010666Y-99409047D01*
X148915428Y-99456666D01*
X148867809Y-99504285D01*
X148820190Y-99599523D01*
X148772571Y-99790000D01*
X148724952Y-99885238D01*
X148677333Y-99932857D01*
X148582095Y-99980476D01*
X148486857Y-99980476D01*
X148391619Y-99932857D01*
X148344000Y-99885238D01*
X148296380Y-99790000D01*
X148296380Y-99551904D01*
X148344000Y-99409047D01*
X149296380Y-98409047D02*
X148820190Y-98742380D01*
X149296380Y-98980476D02*
X148296380Y-98980476D01*
X148296380Y-98599523D01*
X148344000Y-98504285D01*
X148391619Y-98456666D01*
X148486857Y-98409047D01*
X148629714Y-98409047D01*
X148724952Y-98456666D01*
X148772571Y-98504285D01*
X148820190Y-98599523D01*
X148820190Y-98980476D01*
X149201142Y-97409047D02*
X149248761Y-97456666D01*
X149296380Y-97599523D01*
X149296380Y-97694761D01*
X149248761Y-97837619D01*
X149153523Y-97932857D01*
X149058285Y-97980476D01*
X148867809Y-98028095D01*
X148724952Y-98028095D01*
X148534476Y-97980476D01*
X148439238Y-97932857D01*
X148344000Y-97837619D01*
X148296380Y-97694761D01*
X148296380Y-97599523D01*
X148344000Y-97456666D01*
X148391619Y-97409047D01*
X149296380Y-96504285D02*
X149296380Y-96980476D01*
X148296380Y-96980476D01*
X149296380Y-96170952D02*
X148296380Y-96170952D01*
X149296380Y-95599523D02*
X148724952Y-96028095D01*
X148296380Y-95599523D02*
X148867809Y-96170952D01*
X149296380Y-94567238D02*
X148820190Y-94900571D01*
X149296380Y-95138666D02*
X148296380Y-95138666D01*
X148296380Y-94757714D01*
X148344000Y-94662476D01*
X148391619Y-94614857D01*
X148486857Y-94567238D01*
X148629714Y-94567238D01*
X148724952Y-94614857D01*
X148772571Y-94662476D01*
X148820190Y-94757714D01*
X148820190Y-95138666D01*
X149201142Y-93567238D02*
X149248761Y-93614857D01*
X149296380Y-93757714D01*
X149296380Y-93852952D01*
X149248761Y-93995809D01*
X149153523Y-94091047D01*
X149058285Y-94138666D01*
X148867809Y-94186285D01*
X148724952Y-94186285D01*
X148534476Y-94138666D01*
X148439238Y-94091047D01*
X148344000Y-93995809D01*
X148296380Y-93852952D01*
X148296380Y-93757714D01*
X148344000Y-93614857D01*
X148391619Y-93567238D01*
X149296380Y-92662476D02*
X149296380Y-93138666D01*
X148296380Y-93138666D01*
X149296380Y-92329142D02*
X148296380Y-92329142D01*
X149296380Y-91757714D02*
X148724952Y-92186285D01*
X148296380Y-91757714D02*
X148867809Y-92329142D01*
X149296380Y-88622095D02*
X148296380Y-88622095D01*
X148296380Y-88384000D01*
X148344000Y-88241142D01*
X148439238Y-88145904D01*
X148534476Y-88098285D01*
X148724952Y-88050666D01*
X148867809Y-88050666D01*
X149058285Y-88098285D01*
X149153523Y-88145904D01*
X149248761Y-88241142D01*
X149296380Y-88384000D01*
X149296380Y-88622095D01*
X149248761Y-87669714D02*
X149296380Y-87526857D01*
X149296380Y-87288761D01*
X149248761Y-87193523D01*
X149201142Y-87145904D01*
X149105904Y-87098285D01*
X149010666Y-87098285D01*
X148915428Y-87145904D01*
X148867809Y-87193523D01*
X148820190Y-87288761D01*
X148772571Y-87479238D01*
X148724952Y-87574476D01*
X148677333Y-87622095D01*
X148582095Y-87669714D01*
X148486857Y-87669714D01*
X148391619Y-87622095D01*
X148344000Y-87574476D01*
X148296380Y-87479238D01*
X148296380Y-87241142D01*
X148344000Y-87098285D01*
X148344000Y-82803904D02*
X148296380Y-82899142D01*
X148296380Y-83042000D01*
X148344000Y-83184857D01*
X148439238Y-83280095D01*
X148534476Y-83327714D01*
X148724952Y-83375333D01*
X148867809Y-83375333D01*
X149058285Y-83327714D01*
X149153523Y-83280095D01*
X149248761Y-83184857D01*
X149296380Y-83042000D01*
X149296380Y-82946761D01*
X149248761Y-82803904D01*
X149201142Y-82756285D01*
X148867809Y-82756285D01*
X148867809Y-82946761D01*
X149296380Y-82327714D02*
X148296380Y-82327714D01*
X149296380Y-81756285D01*
X148296380Y-81756285D01*
X149296380Y-81280095D02*
X148296380Y-81280095D01*
X148296380Y-81042000D01*
X148344000Y-80899142D01*
X148439238Y-80803904D01*
X148534476Y-80756285D01*
X148724952Y-80708666D01*
X148867809Y-80708666D01*
X149058285Y-80756285D01*
X149153523Y-80803904D01*
X149248761Y-80899142D01*
X149296380Y-81042000D01*
X149296380Y-81280095D01*
X148296380Y-86677333D02*
X149296380Y-86344000D01*
X148296380Y-86010666D01*
X149201142Y-85105904D02*
X149248761Y-85153523D01*
X149296380Y-85296380D01*
X149296380Y-85391619D01*
X149248761Y-85534476D01*
X149153523Y-85629714D01*
X149058285Y-85677333D01*
X148867809Y-85724952D01*
X148724952Y-85724952D01*
X148534476Y-85677333D01*
X148439238Y-85629714D01*
X148344000Y-85534476D01*
X148296380Y-85391619D01*
X148296380Y-85296380D01*
X148344000Y-85153523D01*
X148391619Y-85105904D01*
X149201142Y-84105904D02*
X149248761Y-84153523D01*
X149296380Y-84296380D01*
X149296380Y-84391619D01*
X149248761Y-84534476D01*
X149153523Y-84629714D01*
X149058285Y-84677333D01*
X148867809Y-84724952D01*
X148724952Y-84724952D01*
X148534476Y-84677333D01*
X148439238Y-84629714D01*
X148344000Y-84534476D01*
X148296380Y-84391619D01*
X148296380Y-84296380D01*
X148344000Y-84153523D01*
X148391619Y-84105904D01*
X144875523Y-101496761D02*
X145018380Y-101544380D01*
X145256476Y-101544380D01*
X145351714Y-101496761D01*
X145399333Y-101449142D01*
X145446952Y-101353904D01*
X145446952Y-101258666D01*
X145399333Y-101163428D01*
X145351714Y-101115809D01*
X145256476Y-101068190D01*
X145066000Y-101020571D01*
X144970761Y-100972952D01*
X144923142Y-100925333D01*
X144875523Y-100830095D01*
X144875523Y-100734857D01*
X144923142Y-100639619D01*
X144970761Y-100592000D01*
X145066000Y-100544380D01*
X145304095Y-100544380D01*
X145446952Y-100592000D01*
X146446952Y-101544380D02*
X146113619Y-101068190D01*
X145875523Y-101544380D02*
X145875523Y-100544380D01*
X146256476Y-100544380D01*
X146351714Y-100592000D01*
X146399333Y-100639619D01*
X146446952Y-100734857D01*
X146446952Y-100877714D01*
X146399333Y-100972952D01*
X146351714Y-101020571D01*
X146256476Y-101068190D01*
X145875523Y-101068190D01*
X147446952Y-101449142D02*
X147399333Y-101496761D01*
X147256476Y-101544380D01*
X147161238Y-101544380D01*
X147018380Y-101496761D01*
X146923142Y-101401523D01*
X146875523Y-101306285D01*
X146827904Y-101115809D01*
X146827904Y-100972952D01*
X146875523Y-100782476D01*
X146923142Y-100687238D01*
X147018380Y-100592000D01*
X147161238Y-100544380D01*
X147256476Y-100544380D01*
X147399333Y-100592000D01*
X147446952Y-100639619D01*
X148351714Y-101544380D02*
X147875523Y-101544380D01*
X147875523Y-100544380D01*
X149256476Y-101544380D02*
X148923142Y-101068190D01*
X148685047Y-101544380D02*
X148685047Y-100544380D01*
X149066000Y-100544380D01*
X149161238Y-100592000D01*
X149208857Y-100639619D01*
X149256476Y-100734857D01*
X149256476Y-100877714D01*
X149208857Y-100972952D01*
X149161238Y-101020571D01*
X149066000Y-101068190D01*
X148685047Y-101068190D01*
X148296380Y-90717619D02*
X148296380Y-90527142D01*
X148344000Y-90431904D01*
X148439238Y-90336666D01*
X148629714Y-90289047D01*
X148963047Y-90289047D01*
X149153523Y-90336666D01*
X149248761Y-90431904D01*
X149296380Y-90527142D01*
X149296380Y-90717619D01*
X149248761Y-90812857D01*
X149153523Y-90908095D01*
X148963047Y-90955714D01*
X148629714Y-90955714D01*
X148439238Y-90908095D01*
X148344000Y-90812857D01*
X148296380Y-90717619D01*
X148772571Y-89860476D02*
X148772571Y-89527142D01*
X149296380Y-89384285D02*
X149296380Y-89860476D01*
X148296380Y-89860476D01*
X148296380Y-89384285D01*
D11*
%TO.C,U2*%
X130540000Y-101914000D02*
X132190000Y-101914000D01*
X132190000Y-101914000D02*
X132190000Y-78934000D01*
X132190000Y-78934000D02*
X126890000Y-78934000D01*
X126890000Y-78934000D02*
X126890000Y-101914000D01*
X126890000Y-101914000D02*
X128540000Y-101914000D01*
X128540000Y-101914000D02*
G75*
G02*
X130540000Y-101914000I1000000J0D01*
G01*
%TO.C,C1*%
X137016000Y-78447000D02*
X137016000Y-78132000D01*
X137016000Y-80872000D02*
X137016000Y-80557000D01*
X141956000Y-78447000D02*
X141956000Y-78132000D01*
X141956000Y-80872000D02*
X141956000Y-80557000D01*
X141956000Y-78132000D02*
X137016000Y-78132000D01*
X141956000Y-80872000D02*
X137016000Y-80872000D01*
%TO.C,U1*%
X142135001Y-81495001D02*
X140485001Y-81495001D01*
X142135001Y-101935001D02*
X142135001Y-81495001D01*
X136835001Y-101935001D02*
X142135001Y-101935001D01*
X136835001Y-81495001D02*
X136835001Y-101935001D01*
X138485001Y-81495001D02*
X136835001Y-81495001D01*
X140485001Y-81495001D02*
G75*
G02*
X138485001Y-81495001I-1000000J0D01*
G01*
%TO.C,J1*%
X144974000Y-99374000D02*
X147634000Y-99374000D01*
X144974000Y-84074000D02*
X144974000Y-99374000D01*
X147634000Y-84074000D02*
X147634000Y-99374000D01*
X144974000Y-84074000D02*
X147634000Y-84074000D01*
X144974000Y-82804000D02*
X144974000Y-81474000D01*
X144974000Y-81474000D02*
X146304000Y-81474000D01*
%TO.C,J2*%
X121352000Y-81474000D02*
X122682000Y-81474000D01*
X121352000Y-82804000D02*
X121352000Y-81474000D01*
X121352000Y-84074000D02*
X124012000Y-84074000D01*
X124012000Y-84074000D02*
X124012000Y-99374000D01*
X121352000Y-84074000D02*
X121352000Y-99374000D01*
X121352000Y-99374000D02*
X124012000Y-99374000D01*
%TO.C,J3*%
X144586000Y-104080000D02*
X144586000Y-105410000D01*
X143256000Y-104080000D02*
X144586000Y-104080000D01*
X144586000Y-106680000D02*
X144586000Y-109280000D01*
X141986000Y-106680000D02*
X144586000Y-106680000D01*
X141986000Y-104080000D02*
X141986000Y-106680000D01*
X144586000Y-109280000D02*
X124146000Y-109280000D01*
X141986000Y-104080000D02*
X124146000Y-104080000D01*
X124146000Y-104080000D02*
X124146000Y-109280000D01*
%TO.C,J4*%
X126940000Y-75505000D02*
X126940000Y-78165000D01*
X129540000Y-75505000D02*
X126940000Y-75505000D01*
X129540000Y-78165000D02*
X126940000Y-78165000D01*
X129540000Y-75505000D02*
X129540000Y-78165000D01*
X130810000Y-75505000D02*
X132140000Y-75505000D01*
X132140000Y-75505000D02*
X132140000Y-76835000D01*
%TO.C,U2*%
D10*
X128778095Y-99274380D02*
X128778095Y-100083904D01*
X128825714Y-100179142D01*
X128873333Y-100226761D01*
X128968571Y-100274380D01*
X129159047Y-100274380D01*
X129254285Y-100226761D01*
X129301904Y-100179142D01*
X129349523Y-100083904D01*
X129349523Y-99274380D01*
X129778095Y-99369619D02*
X129825714Y-99322000D01*
X129920952Y-99274380D01*
X130159047Y-99274380D01*
X130254285Y-99322000D01*
X130301904Y-99369619D01*
X130349523Y-99464857D01*
X130349523Y-99560095D01*
X130301904Y-99702952D01*
X129730476Y-100274380D01*
X130349523Y-100274380D01*
%TO.C,C1*%
X139319333Y-79859142D02*
X139271714Y-79906761D01*
X139128857Y-79954380D01*
X139033619Y-79954380D01*
X138890761Y-79906761D01*
X138795523Y-79811523D01*
X138747904Y-79716285D01*
X138700285Y-79525809D01*
X138700285Y-79382952D01*
X138747904Y-79192476D01*
X138795523Y-79097238D01*
X138890761Y-79002000D01*
X139033619Y-78954380D01*
X139128857Y-78954380D01*
X139271714Y-79002000D01*
X139319333Y-79049619D01*
X140271714Y-79954380D02*
X139700285Y-79954380D01*
X139986000Y-79954380D02*
X139986000Y-78954380D01*
X139890761Y-79097238D01*
X139795523Y-79192476D01*
X139700285Y-79240095D01*
%TO.C,U1*%
X138988095Y-82702380D02*
X138988095Y-83511904D01*
X139035714Y-83607142D01*
X139083333Y-83654761D01*
X139178571Y-83702380D01*
X139369047Y-83702380D01*
X139464285Y-83654761D01*
X139511904Y-83607142D01*
X139559523Y-83511904D01*
X139559523Y-82702380D01*
X140559523Y-83702380D02*
X139988095Y-83702380D01*
X140273809Y-83702380D02*
X140273809Y-82702380D01*
X140178571Y-82845238D01*
X140083333Y-82940476D01*
X139988095Y-82988095D01*
%TD*%
M02*
